<?xml version="1.0" encoding="utf-8"?>
<!-- Generator: Adobe Illustrator 24.0.3, SVG Export Plug-In . SVG Version: 6.00 Build 0)  -->
<svg version="1.1" id="Calque_1" xmlns="http://www.w3.org/2000/svg" xmlns:xlink="http://www.w3.org/1999/xlink" x="0px" y="0px"
	 viewBox="0 0 25 25" style="enable-background:new 0 0 25 25;" xml:space="preserve">
<style type="text/css">
	.st0{fill-rule:evenodd;clip-rule:evenodd;fill:#FFEF5F;}
	.st1{fill:#F41F22;}
</style>
<path class="st0" d="M4.8,0h15.4C22.8,0,25,2.2,25,4.8v15.4c0,2.7-2.2,4.8-4.8,4.8H4.8C2.2,25,0,22.8,0,20.2V4.8C0,2.2,2.2,0,4.8,0z
	"/>
<g>
	<path class="st1" d="M17.7,13.8c0,0-0.1,1.1-0.2,1.8c-0.1,0.5-0.3,1.3-0.6,2c-0.2,0.3-0.4,0.7-0.7,0.9c-0.3,0.3-0.6,0.5-1,0.7
		c-1,0.4-2.2,0.6-3.3,0.4c-0.2,0-0.4-0.1-0.6-0.1l0,0c-1.1-0.3-2.1-0.9-2.8-1.8c-0.3-0.4-0.5-0.8-0.6-1.2c-0.1-0.4-0.2-0.9-0.1-1.3
		C8,15.1,8,15,8,14.8l-1.4-0.4c-0.1,0.2-0.1,0.4-0.1,0.6c-0.1,0.6,0,1.3,0.1,1.9c0.2,0.6,0.5,1.2,0.8,1.7c0.9,1.2,2.2,1.9,3.5,2.3
		l0,0c0.2,0.1,0.5,0.1,0.7,0.2c1.4,0.2,2.8,0,4-0.5c0.6-0.2,1.1-0.6,1.5-1c0.6-0.6,1-1.3,1.2-2c0.3-0.7,0.4-1.3,0.5-1.7
		c0.1-0.6,0.2-1.8,0.2-1.8L17.7,13.8z"/>
	<path class="st1" d="M8.2,11.8c-0.1-0.5-0.1-1-0.3-1.6c0-0.1,0-0.2-0.1-0.3c0.2-0.3,0.4-0.7,0.6-1.1l0,0c0.1-0.2,0.1-0.4,0.2-0.7
		c0.1-0.4,0.1-0.9,0-1.3C8.5,6.3,8.4,5.9,8.1,5.5C7.7,5,7.1,4.6,6.5,4.5c-0.3-0.1-0.6,0-0.9,0C5.3,4.7,5,4.8,4.7,5.1
		C4.6,5.2,4.4,5.4,4.3,5.6C4.2,5.8,4.1,6,4.1,6.1l1.3,0.6l0,0c0.1-0.1,0.1-0.3,0.2-0.4c0.1-0.1,0.1-0.2,0.2-0.2C5.8,6,5.9,6,6,6
		c0.1,0,0.2,0,0.3,0c0.2,0,0.5,0.2,0.6,0.4C7.1,6.5,7.1,6.7,7.2,7c0,0.3,0,0.6,0,0.9c0,0.1,0,0.2-0.1,0.2C7,7.9,6.8,7.7,6.6,7.6
		C6.3,7.4,6,7.3,5.7,7.3c-0.4-0.1-0.7,0-1,0C4.3,7.4,3.9,7.7,3.7,8C3.5,8.3,3.3,8.7,3.2,9c0,0.2,0,0.3,0,0.5l0,0
		c0,0.3,0.1,0.5,0.2,0.7c0.2,0.3,0.4,0.6,0.7,0.7c0.3,0.2,0.6,0.3,0.9,0.3c0.1,0,0.1,0,0.2,0c0.4,0,0.8,0,1.1-0.2
		c0.1,0,0.3-0.1,0.4-0.2c0.1,0.3,0.1,0.7,0.2,1L8.2,11.8z M5.8,9.8C5.6,9.9,5.4,9.9,5.2,9.9c0,0,0,0-0.1,0C5,9.8,4.9,9.8,4.8,9.7
		c0,0-0.1-0.1-0.1-0.1c0,0,0-0.1,0-0.1l0,0c0-0.1,0-0.1,0-0.2c0-0.1,0.1-0.3,0.2-0.4C4.9,8.8,5,8.7,5.1,8.7c0.1,0,0.3,0,0.4,0
		c0.1,0,0.2,0.1,0.4,0.1C5.9,8.9,6,9,6.1,9.2c0.1,0.1,0.1,0.2,0.1,0.3C6.1,9.6,5.9,9.7,5.8,9.8z"/>
	<path class="st1" d="M20.4,9.8c-0.1,0.3-0.3,0.5-0.4,0.6c-0.1,0.1-0.3,0.1-0.5,0.1c-0.1,0-0.3-0.1-0.4-0.2
		c-0.1-0.1-0.3-0.3-0.3-0.6c-0.1-0.2-0.1-0.4-0.1-0.5c0.2-0.3,0.4-0.7,0.6-1.1l0,0c0.1-0.2,0.1-0.4,0.2-0.7c0.1-0.4,0.1-0.9,0-1.3
		c-0.1-0.4-0.3-0.9-0.5-1.3C18.4,4.4,17.9,4,17.3,4c-0.3,0-0.6,0-0.9,0.1c-0.3,0.1-0.6,0.3-0.9,0.5c-0.2,0.2-0.3,0.4-0.4,0.5
		c-0.1,0.2-0.2,0.4-0.3,0.5l1.3,0.6l0,0c0.1-0.1,0.1-0.3,0.2-0.4c0.1-0.1,0.1-0.2,0.2-0.2c0.1-0.1,0.2-0.1,0.3-0.1
		c0.1,0,0.2,0,0.3,0c0.2,0,0.5,0.2,0.6,0.4c0.1,0.2,0.2,0.4,0.3,0.7c0,0.3,0.1,0.6,0,0.9c0,0.1,0,0.2-0.1,0.2
		c-0.2-0.2-0.3-0.3-0.5-0.5c-0.3-0.2-0.6-0.3-0.9-0.4c-0.4-0.1-0.7,0-1,0.1c-0.4,0.1-0.8,0.4-1,0.7c-0.2,0.3-0.4,0.7-0.4,1
		c0,0.2,0,0.3,0,0.5l0,0c0,0.3,0.1,0.5,0.2,0.7c0.2,0.3,0.4,0.6,0.7,0.7c0.3,0.2,0.6,0.3,0.9,0.3c0.1,0,0.1,0,0.2,0
		c0.4,0,0.8,0,1.1-0.2c0.1-0.1,0.3-0.1,0.4-0.2c0.1,0.4,0.4,0.8,0.7,1.1c0.3,0.3,0.7,0.5,1.2,0.6c0.5,0.1,1.1,0,1.5-0.4
		c0.4-0.3,0.8-0.8,1-1.4L20.4,9.8z M16.5,9.2c-0.2,0.1-0.3,0.1-0.5,0.1c0,0,0,0-0.1,0c-0.1,0-0.3-0.1-0.4-0.2c0,0-0.1-0.1-0.1-0.1
		c0,0,0-0.1,0-0.1l0,0c0-0.1,0-0.1,0-0.2c0-0.1,0.1-0.3,0.2-0.4c0.1-0.1,0.2-0.2,0.2-0.2c0.1,0,0.3,0,0.4,0c0.1,0,0.2,0.1,0.4,0.1
		c0.1,0.1,0.2,0.2,0.3,0.3C17,8.7,17,8.8,17.1,8.9c0,0,0,0,0,0C16.9,9,16.7,9.1,16.5,9.2z"/>
	<path class="st1" d="M10.5,4.8c0.1,2.2,0.2,4.5,0.4,6.7c0,0.2,0,0.4,0.1,0.6c0.1,0.5,0.2,1.1,0.4,1.7c0.2,0.6,0.5,1.1,1,1.5
		c0.3,0.3,0.7,0.5,1.1,0.7c0.4,0.2,0.7,0.3,1.1,0.4l0.5-1.4c-0.3-0.1-0.6-0.2-0.9-0.3c-0.3-0.1-0.5-0.3-0.7-0.4
		c-0.3-0.2-0.5-0.6-0.6-1c-0.1-0.4-0.2-0.9-0.3-1.4c0-0.2,0-0.4-0.1-0.6c-0.2-2.2-0.3-4.4-0.4-6.6L10.5,4.8L10.5,4.8z"/>
</g>
</svg>
