<?xml version="1.0" encoding="utf-8"?>
<!-- Generator: Adobe Illustrator 24.0.3, SVG Export Plug-In . SVG Version: 6.00 Build 0)  -->
<svg version="1.1" id="Calque_1" xmlns="http://www.w3.org/2000/svg" xmlns:xlink="http://www.w3.org/1999/xlink" x="0px" y="0px"
	 viewBox="0 0 25 25" style="enable-background:new 0 0 25 25;" xml:space="preserve">
<style type="text/css">
	.st0{fill:#0073A5;}
	.st1{fill:#FFFFFF;}
</style>
<g>
	<path class="st0" d="M25,19.5c0,0.5-0.4,0.8-0.8,0.8H0.8c-0.5,0-0.8-0.4-0.8-0.8v-14c0-0.5,0.4-0.8,0.8-0.8h23.3
		c0.5,0,0.8,0.4,0.8,0.8V19.5z"/>
	<g>
		<path class="st1" d="M7.8,12.1v-0.2l-0.1,0.2h-1l-0.1-0.3v0.3H4.5l-0.2-0.5H3.9l-0.2,0.5h-1v-1.6l0.7-1.7h1.4L5,9.3V8.8h1.7
			l0.4,0.8l0.4-0.8h5.4c0,0,0.3,0,0.5,0.1l0-0.1h1.4V9c0,0,0.2-0.2,0.6-0.2s2.4,0,2.4,0L18,9.3V8.8h1.5l0.3,0.5V8.8h1.5v3.3h-1.5
			l-0.4-0.6v0.6h-1.9l-0.3-0.6h-0.4l-0.2,0.6h-1.1c0,0-0.4,0-0.7-0.2c0,0.1,0,0.2,0,0.2h-2.3c0,0,0-0.7,0-0.8c0-0.1-0.1-0.1-0.1-0.1
			h-0.1v0.9H7.8z"/>
		<path class="st1" d="M6.6,12.9h3l0.4,0.5l0.4-0.5h2.3c0,0,0.2,0,0.4,0.1v-0.1c0,0,1.8,0,2,0c0.3,0,0.5,0.1,0.5,0.1v-0.1h2.6V13
			c0,0,0.2-0.1,0.4-0.1c0.3,0,1.7,0,1.7,0V13c0,0,0.2-0.1,0.4-0.1c0.2,0,1.3,0,1.3,0V16c0,0-0.2,0.2-0.5,0.2H20v-0.1
			c0,0-0.2,0.1-0.4,0.1c-0.3,0-4.7,0-4.7,0s0-0.7,0-0.8c0-0.1,0-0.1-0.1-0.1h-0.1v0.9h-1.5v-0.9c0,0-0.2,0.1-0.4,0.1
			c-0.3,0-0.5,0-0.5,0v0.8h-1.8L10,15.7l-0.4,0.5H6.6V12.9z"/>
		<polygon class="st0" points="16.1,13.3 17.9,13.3 17.9,13.9 16.6,13.9 16.6,14.3 17.9,14.3 17.9,14.7 16.6,14.7 16.6,15.2 
			17.9,15.2 17.9,15.7 16.1,15.7 		"/>
		<path class="st0" d="M21.6,14.3c0.7,0,0.8,0.4,0.8,0.8c0,0.4-0.4,0.7-0.7,0.7h-1.2v-0.5h0.9c0.2,0,0.4,0,0.4-0.2
			c0-0.1,0-0.2-0.2-0.2c-0.1,0-0.4,0-0.4,0c-0.6,0-0.8-0.3-0.8-0.7c0-0.4,0.3-0.7,0.7-0.7h1.2v0.5h-0.9c-0.2,0-0.4,0-0.4,0.2
			c0,0.1,0.1,0.2,0.2,0.2C21.2,14.2,21.5,14.3,21.6,14.3z"/>
		<path class="st0" d="M19.4,14.3c0.7,0,0.8,0.4,0.8,0.8c0,0.4-0.4,0.7-0.7,0.7h-1.2v-0.5h0.9c0.2,0,0.4,0,0.4-0.2
			c0-0.1,0-0.2-0.2-0.2c-0.1,0-0.4,0-0.4,0c-0.6,0-0.8-0.3-0.8-0.7c0-0.4,0.3-0.7,0.7-0.7h1.2v0.5h-0.9c-0.2,0-0.4,0-0.4,0.2
			c0,0.1,0.1,0.2,0.2,0.2C19,14.2,19.4,14.3,19.4,14.3z"/>
		<path class="st0" d="M12.6,13.4h-2l-0.7,0.7l-0.6-0.7H7v2.3h2.2l0.7-0.8l0.7,0.8h1.1v-0.8h0.8c0.3,0,0.8,0,0.8-0.8
			C13.3,13.5,12.9,13.4,12.6,13.4z M8.9,15.2H7.6v-0.5h1.3v-0.4H7.6v-0.4l1.4,0l0.6,0.6L8.9,15.2z M11.1,15.5l-0.8-1l0.8-0.9V15.5z
			 M12.4,14.4h-0.7v-0.6h0.7c0.2,0,0.3,0.2,0.3,0.3C12.7,14.3,12.6,14.4,12.4,14.4z"/>
		<path class="st0" d="M15.4,14.6c0.3-0.2,0.4-0.4,0.4-0.6c0-0.5-0.4-0.6-0.7-0.6h-1.5v2.3h0.6v-0.8h0.8c0.2,0,0.3,0.2,0.3,0.4
			l0,0.4h0.6l0-0.5C15.7,14.8,15.6,14.7,15.4,14.6z M14.9,14.4h-0.7v-0.5h0.7c0.2,0,0.3,0.2,0.3,0.3C15.2,14.3,15.1,14.4,14.9,14.4z
			"/>
		<rect x="13.8" y="9.3" class="st0" width="0.6" height="2.3"/>
		<polygon class="st0" points="9.1,9.3 11,9.3 11,9.8 9.7,9.8 9.7,10.3 10.9,10.3 10.9,10.7 9.7,10.7 9.7,11.2 11,11.2 11,11.7 
			9.1,11.7 		"/>
		<path class="st0" d="M13.1,10.6c0.3-0.2,0.4-0.4,0.4-0.6c0-0.5-0.4-0.6-0.7-0.6h-1.5v2.3h0.6v-0.8h0.8c0.2,0,0.3,0.2,0.3,0.4
			l0,0.4h0.6l0-0.5C13.5,10.8,13.4,10.6,13.1,10.6z M12.6,10.3h-0.7V9.8h0.7c0.2,0,0.3,0.2,0.3,0.3C12.9,10.2,12.8,10.3,12.6,10.3z"
			/>
		<path class="st0" d="M7.8,9.3l-0.7,1.6L6.4,9.3H5.5v2.3l-1-2.3H3.7l-1,2.3h0.6l0.2-0.5h1.1l0.2,0.5H6V9.9l0.8,1.7h0.5l0.8-1.7v1.7
			h0.6V9.3H7.8z M3.7,10.6l0.3-0.8l0.4,0.8H3.7z"/>
		<path class="st0" d="M20.3,9.3v1.6l-1-1.6h-0.8v2.2l-1-2.2h-0.8L16,11.1c0,0-0.3,0-0.4,0c-0.1,0-0.4-0.1-0.4-0.5v-0.2
			c0-0.5,0.3-0.6,0.7-0.6h0.4V9.3h-0.8c-0.3,0-0.8,0.2-0.8,1.2c0,0.6,0.3,1.2,0.9,1.2h0.8l0.2-0.5h1.1l0.2,0.5h1.1V9.9l1,1.7h0.8
			V9.3H20.3z M16.8,10.6l0.3-0.8l0.4,0.8H16.8z"/>
	</g>
</g>
</svg>
