<?xml version="1.0" encoding="utf-8"?>
<!-- Generator: Adobe Illustrator 24.1.0, SVG Export Plug-In . SVG Version: 6.00 Build 0)  -->
<svg version="1.1" id="Calque_1" xmlns="http://www.w3.org/2000/svg" xmlns:xlink="http://www.w3.org/1999/xlink" x="0px" y="0px"
	 viewBox="0 0 25 25" style="enable-background:new 0 0 25 25;" xml:space="preserve">
<style type="text/css">
	.st0{filter:url(#Adobe_OpacityMaskFilter);}
	.st1{fill:#FFFFFF;}
	.st2{mask:url(#mask-2_2_);}
	.st3{fill-rule:evenodd;clip-rule:evenodd;fill:#E0E0E0;}
	.st4{fill-rule:evenodd;clip-rule:evenodd;fill:#F41F22;}
</style>
<g>
	<defs>
		<filter id="Adobe_OpacityMaskFilter" filterUnits="userSpaceOnUse" x="0" y="0.1" width="25" height="24.9">
			<feColorMatrix  type="matrix" values="1 0 0 0 0  0 1 0 0 0  0 0 1 0 0  0 0 0 1 0"/>
		</filter>
	</defs>
	<mask maskUnits="userSpaceOnUse" x="0" y="0.1" width="25" height="24.9" id="mask-2_2_">
		<rect x="-5.4" y="-5.4" class="st0" width="35.9" height="35.7"/>
		<g>
			<rect id="rect-1_2_" x="-5.4" y="-5.4" class="st1" width="35.9" height="35.7"/>
		</g>
	</mask>
	<g class="st2">
		<g>
			<g>
				<path class="st3" d="M22.8,18.7c1.2-2,1.8-4.1,1.8-6.3c0-1.2-0.1-2.2-0.4-3.1c-0.8-3.2-2.7-5.7-5.5-7.4c-3-1.8-6.2-2.3-9.6-1.4
					C5.6,1.4,3,3.6,1.3,6.9c-1.4,2.7-1.6,5.6-0.9,8.5C1,17.9,2.3,20,4.3,21.6c2.8,2.4,6.1,3.3,9.8,2.8c1.6-0.2,3.2-0.8,4.6-1.6
					c0.2-0.1,0.4-0.1,0.6,0c1.5,0.7,3,1.4,4.5,2c0.3,0.1,0.6,0.2,0.8,0c0.4-0.3,0.5-0.6,0.3-1.1c-0.7-1.5-1.4-3-2.1-4.5
					C22.7,19,22.7,18.9,22.8,18.7z M11.9,6.3C12,6.1,12.1,6,12.3,6c0.2,0,0.3,0.1,0.4,0.3c0.5,1,1,2,1.5,3c0.1,0.2,0.2,0.2,0.4,0.3
					c1.1,0.1,2.2,0.3,3.2,0.5c0.2,0,0.4,0.1,0.4,0.3c0.1,0.2,0,0.4-0.2,0.5c-0.8,0.8-1.6,1.5-2.4,2.3c-0.2,0.2-0.2,0.3-0.2,0.5
					c0.2,1,0.3,2,0.5,3l0,0c0,0.1,0,0.2,0,0.3c0,0.3-0.3,0.5-0.6,0.4c-0.1,0-0.1-0.1-0.2-0.1c-0.9-0.5-1.9-1-2.8-1.5
					c-0.2-0.1-0.3-0.1-0.5,0c-0.9,0.5-1.9,1-2.8,1.5c-0.2,0.1-0.4,0.1-0.5,0c-0.2-0.1-0.2-0.3-0.2-0.5c0.2-1.1,0.4-2.2,0.6-3.3
					c0-0.2,0-0.3-0.1-0.4c-0.8-0.7-1.6-1.5-2.3-2.2c-0.1-0.1-0.2-0.2-0.2-0.3C6.3,10.2,6.5,10,6.8,10c0.5-0.1,1.1-0.2,1.6-0.2
					C9,9.7,9.5,9.6,10.1,9.5c0.2,0,0.3-0.1,0.4-0.3C10.9,8.3,11.4,7.3,11.9,6.3z"/>
			</g>
			<g>
				<path class="st4" d="M12.3,2.5c0.4,0,0.5,0.2,0.6,0.5c0.7,1.5,1.5,3.1,2.2,4.6C15.3,7.9,15.4,8,15.7,8c1.6,0.2,3.3,0.5,4.9,0.7
					c0.3,0,0.6,0.1,0.7,0.5c0.1,0.4-0.1,0.6-0.3,0.8c-1.2,1.2-2.4,2.4-3.6,3.5c-0.2,0.2-0.3,0.5-0.3,0.8c0.3,1.6,0.5,3.1,0.8,4.7
					c0,0.1,0,0.3,0,0.4c0,0.5-0.4,0.8-0.9,0.6c-0.1,0-0.2-0.1-0.3-0.1c-1.4-0.8-2.9-1.5-4.3-2.3c-0.3-0.2-0.5-0.1-0.8,0
					c-1.4,0.8-2.8,1.6-4.3,2.3c-0.3,0.2-0.6,0.2-0.8,0c-0.3-0.2-0.3-0.4-0.3-0.8c0.3-1.7,0.6-3.4,0.9-5.1c0-0.3,0-0.4-0.2-0.6
					c-1.2-1.2-2.4-2.3-3.5-3.5C3.4,9.9,3.3,9.7,3.2,9.5C3.1,9.1,3.4,8.8,3.9,8.7c0.8-0.1,1.7-0.2,2.5-0.4C7.2,8.2,8,8.1,8.9,8
					c0.3,0,0.4-0.2,0.6-0.4c0.7-1.5,1.5-3,2.2-4.6C11.8,2.7,11.9,2.5,12.3,2.5L12.3,2.5z"/>
			</g>
		</g>
	</g>
</g>
</svg>
