<svg xmlns="http://www.w3.org/2000/svg" xmlns:xlink="http://www.w3.org/1999/xlink" height="30.05357142857065" width="30.05357142857156">
  <g opacity="1">
    <path fill="rgb(34,34,34)" fill-opacity="1" opacity="1" fill-rule="evenodd" d="M15.040187290736412 0.02678571428528187C6.763392857142662 -0.0000010899139368802935 0.02679007393953725 6.709822518484501 0.013392857142662251 15.013388497488407C-0.000004359654212748865 23.276785714285282 6.709803989955162 30.013388497488407 14.986598423548912 30.026785714285282C23.249995640345787 30.0535725184845 29.986598423548912 23.357138497488407 30.013392857142662 15.066962105886844C30.053553989955162 6.790175301687626 23.343745640345787 0.053568703787234995 15.040187290736412 0.02678571428528187ZM9.776759556361412 8.437498910086063C9.950892857142662 6.200896126882938 11.531245640345787 4.325896126882938 13.674098423548912 3.776785714285282C15.897303989955162 3.214285714285282 18.160701206752037 4.084822518484501 19.433009556361412 5.999998910086063C20.035701206752037 6.897322518484501 20.290156773158287 7.901785714285282 20.303553989955162 8.973212105886844L20.303553989955162 9.73660932268372C20.330348423548912 10.794646126882938 20.276759556361412 11.825896126882938 19.821406773158287 12.816962105886844C18.522303989955162 15.6160725184845 15.160701206752037 16.7410725184845 12.468745640345787 15.227675301687626C10.687495640345787 14.223212105886844 9.790156773158287 12.64285932268372 9.736598423548912 10.620535714285282C9.723201206752037 9.8973225184845 9.723201206752037 9.160712105886844 9.776759556361412 8.437498910086063ZM24.857142857142662 23.839285714285282C19.607142857142662 17.89285932268372 10.245540073939537 18.026785714285282 5.169642857142662 23.839285714285282C10.258937290736412 29.758932931082157 19.808040073939537 29.718748910086063 24.857142857142662 23.839285714285282Z"/>
  </g>
</svg>