<?xml version="1.0" encoding="utf-8"?>
<!-- Generator: Adobe Illustrator 24.0.3, SVG Export Plug-In . SVG Version: 6.00 Build 0)  -->
<svg version="1.1" id="Calque_1" xmlns="http://www.w3.org/2000/svg" xmlns:xlink="http://www.w3.org/1999/xlink" x="0px" y="0px"
	 viewBox="0 0 25 25" style="enable-background:new 0 0 25 25;" xml:space="preserve">
<style type="text/css">
	.st0{fill-rule:evenodd;clip-rule:evenodd;fill:#E0E0E0;}
	.st1{fill-rule:evenodd;clip-rule:evenodd;fill:#F41F22;}
</style>
<g>
	<g>
		<path class="st0" d="M25,9.2H0c0,0.1,0,0.1,0,0.2c0,0.9,0,1.8,0,2.8c0,2.5,0,4.9,0,7.4c0,1.3,0.7,2.2,1.7,2.2c7.2,0,14.4,0,21.7,0
			c0.2,0,0.3,0,0.5-0.1c0.8-0.3,1.2-1.1,1.2-2.2c0-2.5,0-5,0-7.5c0-0.8,0-1.7,0-2.5V9.2z M5,13.4c0.2,0,0.3,0,0.5,0
			c0.2,0,0.3,0,0.5,0c0.3,0,0.7,0,1,0c0.5,0,0.8,0.4,0.8,1c0,0.6-0.3,1.1-0.8,1.1c-1,0-2.1,0-3.1,0c-0.5,0-0.8-0.5-0.8-1
			c0-0.6,0.3-1,0.8-1C4.3,13.4,4.7,13.4,5,13.4z"/>
	</g>
	<g>
		<path class="st1" d="M25,7.4H0c0-0.8-0.1-1.7,0-2.5c0.1-1,0.7-1.6,1.6-1.7c0.1,0,0.1,0,0.2,0c7.1,0,14.3,0,21.4,0
			c0.3,0,0.6,0.1,0.9,0.2c0.6,0.3,0.9,1,0.9,1.8C25,6,25,6.7,25,7.4L25,7.4z"/>
	</g>
</g>
</svg>
