<svg xmlns="http://www.w3.org/2000/svg" xmlns:xlink="http://www.w3.org/1999/xlink" width="81" height="81.5" viewBox="0 0 81 81.5">
  <defs>
    <ellipse id="ellipse-1" cx="40.5" cy="40.75" rx="40.5" ry="40.75"/>
    <mask id="mask-2" x="0" y="0" maskContentUnits="userSpaceOnUse" maskUnits="userSpaceOnUse">
      <rect width="81" height="81.5" x="0" y="0" fill="black"/>
      <use fill="white" xlink:href="#ellipse-1"/>
    </mask>
  </defs>
  <g>
    <use fill-opacity="0" stroke="rgb(12,146,102)" stroke-linecap="butt" stroke-linejoin="miter" stroke-width="10" mask="url(#mask-2)" xlink:href="#ellipse-1"/>
    <path fill="rgb(12,146,102)" fill-rule="evenodd" d="M57.12314433 34.30865725c-.01640287.7411847-.2179238 1.16223327-.67603246 1.43481293-.47568315.2841788-.97011243.53935976-1.44110905.83049803-2.21555871 1.36521813-4.17921625 3.04013316-6.06788925 4.8124809-3.18801442 2.9914168-6.06906089 6.25889298-8.83880218 9.62612172-.7088382.8618157-1.42236292 1.72131156-2.07496271 2.62372422-.78733763 1.09031865-1.95428447.79686054-2.54010116.06495516-1.32980388-1.66099606-2.79668887-3.2002012-4.34675982-4.66169216-1.8992177-1.78974645-3.94020304-3.40550588-6.12647092-4.83683908-1.0076047-.65999075-1.1341411-1.13555527-.50966052-2.16207867.63268202-1.03928245 1.45048212-1.93821537 2.23078995-2.86614613.55535422-.65999075 1.05798494-1.3628983 1.60396609-2.03100845.23081177-.28185897.49442928-.54515932.77796456-.77482219.2706473-.21922364.58698832-.17630684.87169523.00927931.12887967.08467368.2495579.18558615.36320635.28997836 1.70472656 1.56240342 3.40710985 3.12828658 5.11417968 4.68837017.16285704.14846892.35149001.27489948.54246625.388571.24604301.14730901.49091439.11367152.69946513-.07887411.14176764-.13107022.2847069-.26794001.39484044-.42336841 2.06793291-2.90790302 4.5353928-5.4597126 7.17273953-7.8572537 2.44754212-2.224714 5.03568025-4.2777608 7.73278028-6.19741757.25072954-.17862667.53426481-.32477576.82248662-.43264771.39015392-.1461491.7123531-.03943706.9443365.30621715 1.16929011 1.74103008 2.26359569 3.52497697 2.94314304 5.51886819.21558054.62287352.30813958 1.28982375.40772842 1.72827104z"/>
  </g>
</svg>
