<svg width="15" height="16" viewBox="0 0 15 16" fill="none" xmlns="http://www.w3.org/2000/svg">
<g clip-path="url(#clip0)">
<path fill-rule="evenodd" clip-rule="evenodd" d="M15 7.51561C15.0062 3.37768 11.6535 0.0124935 7.50934 3.4653e-05C3.37766 -0.0124318 0 3.34029 0 7.49691C0 11.6722 3.34027 14.9876 7.49066 15.0063C11.6223 15.025 14.9938 11.6535 15 7.51561ZM7.51559 1.16539C11.0927 1.17785 13.8159 4.01333 13.8471 7.51561C13.8035 11.0678 11.0116 13.8534 7.49066 13.8471C3.91983 13.8347 1.15289 11.0054 1.15912 7.50315C1.1716 3.90116 4.02576 1.15292 7.51559 1.16539Z" fill="#FFEF5F"/>
<path fill-rule="evenodd" clip-rule="evenodd" d="M6.92358 5.18489V2.92897C6.92358 2.57999 7.14793 2.33072 7.45329 2.31825C7.79604 2.29956 8.04531 2.51767 8.07647 2.85419C8.0827 2.91028 8.0827 2.96636 8.0827 3.02245V7.02328C8.0827 7.12922 8.11386 7.18531 8.20734 7.24139C9.01124 7.72124 9.81515 8.20733 10.6191 8.69341C10.8434 8.83051 10.9867 9.005 10.9618 9.29166C10.9244 9.66557 10.5318 9.90861 10.1828 9.76528C10.133 9.74659 10.0769 9.71543 10.0333 9.68427C9.12342 9.13587 8.22604 8.58747 7.30996 8.05153C7.03576 7.8895 6.92358 7.67762 6.92358 7.36603C6.92982 6.64314 6.92358 5.91402 6.92358 5.18489Z" fill="#FFEF5F"/>
</g>
<defs>
<clipPath id="clip0">
<rect width="15" height="15.006" fill="white"/>
</clipPath>
</defs>
</svg>
