<?xml version="1.0" encoding="utf-8"?>
<!-- Generator: Adobe Illustrator 24.1.0, SVG Export Plug-In . SVG Version: 6.00 Build 0)  -->
<svg version="1.1" id="Calque_1" xmlns="http://www.w3.org/2000/svg" xmlns:xlink="http://www.w3.org/1999/xlink" x="0px" y="0px"
	 viewBox="0 0 25 25" style="enable-background:new 0 0 25 25;" xml:space="preserve">
<style type="text/css">
	.st0{fill-rule:evenodd;clip-rule:evenodd;fill:#E0E0E0;}
	.st1{fill-rule:evenodd;clip-rule:evenodd;fill:#FFEF5F;}
</style>
<g>
	<g>
		<g>
			<path class="st0" d="M12.2,14.9c0.4-1.3,0.9-2.6,1.3-3.9c0.4-1.2,0.8-2.4,1.1-3.5c0.2-0.7,0.8-1,1.4-0.8c0.6,0.2,0.9,0.8,0.8,1.4
				c-0.2,0.9-0.5,1.8-0.8,2.7c-0.3,0.9-0.6,1.8-0.8,2.8c0-0.1,0.1-0.1,0.1-0.2c0.8-2,1.6-4.1,2.4-6.1C18,6.2,18.9,6,19.6,6.6
				C20,6.9,20.1,7.5,19.9,8c-0.9,2.1-1.7,4.2-2.6,6.4c0,0,0,0.1,0,0.2c0-0.1,0.1-0.1,0.1-0.2c0.8-1.6,1.6-3.3,2.4-4.9
				c0.3-0.6,0.9-0.9,1.4-0.7c0.6,0.2,0.9,0.8,0.7,1.4c0,0.1-0.1,0.2-0.1,0.4c-0.8,1.7-1.7,3.5-2.5,5.2c0,0,0,0.1,0,0.1
				c0-0.1,0.1-0.1,0.1-0.2c0.6-1.1,1.3-2.2,1.9-3.3c0.4-0.7,1.3-0.7,1.7-0.2c0.3,0.4,0.3,0.8,0.1,1.3c-0.4,0.8-0.9,1.7-1.3,2.5
				c-0.9,1.8-1.9,3.6-2.8,5.3c-0.4,0.8-1,1.5-1.6,2.1c-0.4,0.5-0.8,0.9-1.2,1.4c-0.1,0.1-0.2,0.1-0.3,0c-1.7-0.7-3.3-1.4-5-2.2
				c-0.2-0.1-0.5-0.2-0.7-0.3c-0.1,0-0.1-0.1-0.1-0.2c0-1-0.2-2-0.3-3c-0.1-0.8-0.1-1.6,0-2.4c0.1-0.7,0.2-1.4,0.3-2.1
				c0.1-0.5,0.1-0.9,0.2-1.4c0-0.3,0.1-0.5,0.3-0.7c0.2-0.4,0.7-0.5,1-0.1c0.5,0.5,0.8,1.1,0.8,1.8C12.2,14.4,12.2,14.6,12.2,14.9
				L12.2,14.9z"/>
		</g>
		<g>
			<path class="st1" d="M1.8,16.4c0-2.8,0.5-5.4,1.6-8C3.6,8.1,3.9,7.9,4.1,8c0.3,0.1,0.4,0.4,0.3,0.8c-0.6,1.4-1,2.8-1.3,4.3
				c-0.2,1.5-0.3,3.1-0.1,4.6c0,0.1,0,0.3,0,0.4c0,0.4-0.2,0.6-0.5,0.6c-0.3,0-0.5-0.2-0.6-0.5C1.9,17.7,1.9,17,1.8,16.4L1.8,16.4z"
				/>
		</g>
		<g>
			<path class="st1" d="M7.8,8.7c1.5-3.3,3.6-6.1,6.3-8.4c0.4-0.3,0.8-0.3,1,0C15.4,0.5,15.4,1,15,1.3c-1.5,1.3-2.8,2.7-3.9,4.4
				C10,7.3,9.1,9.1,8.4,11c-0.1,0.2-0.1,0.4-0.2,0.5C8,12,7.6,12.2,7.3,12.1c-0.4-0.1-0.5-0.5-0.4-1C7.2,10.3,7.5,9.5,7.8,8.7
				L7.8,8.7z"/>
		</g>
	</g>
</g>
</svg>
