<?xml version="1.0" encoding="utf-8"?>
<!-- Generator: Adobe Illustrator 24.0.2, SVG Export Plug-In . SVG Version: 6.00 Build 0)  -->
<svg version="1.1" id="Calque_1" xmlns="http://www.w3.org/2000/svg" xmlns:xlink="http://www.w3.org/1999/xlink" x="0px" y="0px"
	 viewBox="0 0 62.3 110.6" style="enable-background:new 0 0 62.3 110.6;" xml:space="preserve">
<style type="text/css">
	.st0{fill:#FFEF5F;}
</style>
<g>
	<path class="st0" d="M0.5,11.5c6.6,10.7,13.1,21.6,18.7,33.2c0.7-0.3,1.3-0.6,2-1c0.4-0.2,0.8-0.5,1.3-0.7c1.4-0.5,2.8-0.9,4.2-1.3
		c1.6-0.2,3.3-0.3,4.9-0.3c1.5,0.2,2.9,0.5,4.4,0.9c1.2,0.5,2.3,1,3.4,1.7c1,0.8,1.9,1.6,2.8,2.5c0.9,1.2,1.8,2.5,2.5,3.9
		c0.5,1.4,1,2.9,1.4,4.4c0.1,1.3,0.1,2.7,0.1,4c-0.3,1.2-0.6,2.4-1,3.5c-0.7,1.2-1.4,2.4-2.2,3.6c-1.1,1.1-2.2,2.2-3.4,3.2
		c-1.3,0.8-2.7,1.6-4.1,2.2c-1.1,0.3-2.2,0.6-3.4,0.9c-0.4,0.1-0.8,0.2-1.1,0.3l11.2,37.3c0.4,0,0.8-0.1,1.2-0.1
		c6.9-1,13.3-3.2,19-6.2v-95c-6-3.8-12.8-6.5-20-7.5C27.9-0.7,13.3,3,0.5,11.5z"/>
</g>
</svg>
