<?xml version="1.0" encoding="utf-8"?>
<!-- Generator: Adobe Illustrator 24.2.3, SVG Export Plug-In . SVG Version: 6.00 Build 0)  -->
<svg version="1.1" id="Calque_1" xmlns="http://www.w3.org/2000/svg" xmlns:xlink="http://www.w3.org/1999/xlink" x="0px" y="0px"
	 viewBox="0 0 156.3 114.3" style="enable-background:new 0 0 156.3 114.3;" xml:space="preserve">
<style type="text/css">
	.st0{fill:none;}
	.st1{fill:#FFEF5F;}
</style>
<g>
	<path class="st0" d="M19.9,2.6C23,1.3,26.5,0.5,30,0.2H0v32.6C0,26,2,19.7,5.6,14.5C9.1,9.3,14.1,5.1,19.9,2.6z"/>
	<path class="st0" d="M148.6,108.7c-3.5,2.4-7.6,4.2-12,5.1c-1.4,0.3-2.7,0.4-4,0.5h23.8v-13.1C154.2,104.1,151.6,106.6,148.6,108.7
		z"/>
	<path class="st0" d="M35,61.5c3.6,0,6.5-3.7,6.5-8.3s-2.9-8.3-6.5-8.3s-6.5,3.7-6.5,8.3C28.5,57.8,31.5,61.5,35,61.5z"/>
	<path class="st0" d="M134.5,29.9c-4.3-1.7-8.8-0.3-10.1,3c-1.3,3.4,1.1,7.4,5.4,9.1s8.8,0.3,10.1-3
		C141.2,35.6,138.7,31.5,134.5,29.9z"/>
	<path class="st0" d="M35,20.8c3.6,0,6.5-3.7,6.5-8.3c0-4.6-2.9-8.3-6.5-8.3s-6.5,3.7-6.5,8.3C28.5,17.1,31.5,20.8,35,20.8z"/>
	<path class="st0" d="M117.6,111.9c-5.8-2.4-10.8-6.5-14.4-11.8c-2.4-3.5-4.2-7.6-5-12c-1.3-6.8,3-13.3,9.8-14.6
		c6.7-1.3,13.3,3,14.6,9.8c0.3,1.6,1.1,3,2.2,4c1.1,1.1,2.4,1.8,3.9,2.1c1,0.2,2,0.2,3.1,0c1.6-0.3,2.9-1.1,4-2.2s1.8-2.4,2.1-3.9
		c0.2-1,0.2-2,0-3.1c-1.3-6.8,3-13.3,9.8-14.6c3.1-0.6,6.2,0,8.7,1.5V34.7c-0.5-0.3-1-0.6-1.5-0.8c-1.5-0.6-3.1-0.7-4.5-0.3
		c-1.5,0.3-2.9,1.1-3.9,2.2c-0.7,0.7-1.2,1.6-1.6,2.6c-2.5,6.4-9.7,9.5-16.1,7c-6.3-2.5-9.5-9.7-7-16.1c2.4-6.2,6.7-11.4,11.8-15
		s11.3-5.6,17.6-5.8c1.8,0,3.5,0,5.3,0.3V0.2H34.3c6.1,0.8,10.8,6,10.8,12.3c0,6.9-5.6,12.4-12.4,12.4c-1.6,0-3.1,0.5-4.4,1.3
		c-1.2,0.9-2.3,2.1-2.9,3.4c-0.4,1-0.6,1.9-0.6,3.1c0,1.6,0.5,3.1,1.3,4.4c0.9,1.2,2.1,2.3,3.5,2.8c1,0.4,1.9,0.6,3.1,0.6
		C39.5,40.6,45,46.1,45,53s-5.6,12.4-12.4,12.4c-6.7,0.1-13-2-18.3-5.6C9.2,56.3,5,51.4,2.6,45.5C0.9,41.6,0,37.2,0,32.8v81.5h127.7
		C124.2,114,120.8,113.2,117.6,111.9z M78.8,62c-3.7-5.8-2-13.5,3.7-17.2c1.4-0.9,2.3-2,2.9-3.5c0.6-1.4,0.8-3,0.5-4.4
		c-0.2-1-0.5-1.9-1.1-2.9c-0.9-1.4-2-2.3-3.5-3c-1.4-0.6-2.9-0.8-4.4-0.5c-1,0.2-1.9,0.5-2.9,1.1c-5.8,3.7-13.5,2-17.2-3.7
		c-3.7-5.8-2-13.5,3.7-17.2C66.3,7.1,72.7,5.4,79,5.6c6.3,0.1,12.4,2.1,17.7,5.7c3.5,2.4,6.6,5.6,9,9.3c3.6,5.7,5.3,12.1,5.2,18.4
		c-0.1,6.3-2.1,12.4-5.7,17.7c-2.4,3.5-5.6,6.6-9.2,9.1C90.2,69.5,82.5,67.8,78.8,62z"/>
	<path class="st1" d="M14.3,59.9c5.2,3.5,11.6,5.6,18.3,5.6C39.5,65.4,45,59.9,45,53s-5.6-12.4-12.4-12.4c-1.1,0-2.1-0.2-3.1-0.6
		c-1.4-0.6-2.6-1.6-3.5-2.8c-0.9-1.2-1.3-2.7-1.3-4.4c0-1.1,0.2-2.1,0.6-3.1c0.6-1.3,1.6-2.6,2.9-3.4c1.2-0.9,2.7-1.3,4.4-1.3
		c6.9,0,12.4-5.6,12.4-12.4c0-6.3-4.7-11.5-10.8-12.3H30c-3.6,0.3-7,1.1-10.1,2.4C14.1,5.1,9.1,9.3,5.6,14.5C2,19.7,0,26,0,32.8
		c0,4.4,0.9,8.8,2.6,12.7C5,51.4,9.2,56.3,14.3,59.9z M35,44.8c3.6,0,6.5,3.7,6.5,8.3s-2.9,8.3-6.5,8.3c-3.6,0-6.5-3.7-6.5-8.3
		C28.6,48.6,31.5,44.8,35,44.8z M35,4.1c3.6,0,6.5,3.7,6.5,8.3c0,4.6-2.9,8.3-6.5,8.3c-3.6,0-6.5-3.7-6.5-8.3
		C28.6,7.9,31.5,4.1,35,4.1z"/>
	<path class="st1" d="M105.2,56.7c3.6-5.3,5.6-11.4,5.7-17.7c0.2-6.3-1.5-12.7-5.2-18.4c-2.4-3.7-5.5-6.9-9-9.3
		C91.4,7.7,85.3,5.7,79,5.6c-6.3-0.2-12.7,1.5-18.4,5.2c-5.8,3.7-7.4,11.4-3.7,17.2c3.7,5.8,11.4,7.4,17.2,3.7c1-0.6,1.9-1,2.9-1.1
		c1.5-0.3,3.1-0.1,4.4,0.5c1.4,0.6,2.6,1.5,3.5,3c0.6,1,1,1.9,1.1,2.9c0.3,1.5,0.1,3.1-0.5,4.4c-0.6,1.4-1.5,2.6-2.9,3.5
		c-5.8,3.7-7.4,11.4-3.7,17.2c3.7,5.8,11.4,7.4,17.2,3.7C99.7,63.3,102.8,60.2,105.2,56.7z"/>
	<path class="st1" d="M151.1,8.4c-6.3,0.2-12.5,2.2-17.6,5.8s-9.4,8.7-11.8,15c-2.5,6.4,0.7,13.6,7,16.1c6.4,2.5,13.6-0.7,16.1-7
		c0.4-1,1-1.9,1.6-2.6c1-1.1,2.4-1.9,3.9-2.2c1.5-0.3,3-0.2,4.5,0.3c0.6,0.2,1.1,0.5,1.5,0.8v-26C154.6,8.5,152.8,8.4,151.1,8.4z
		 M139.9,39c-1.3,3.4-5.8,4.7-10.1,3s-6.7-5.7-5.4-9.1c1.3-3.4,5.8-4.7,10.1-3C138.7,31.5,141.2,35.6,139.9,39z"/>
	<path class="st1" d="M147.6,65.5c-6.7,1.4-11.1,7.9-9.8,14.6c0.2,1.1,0.2,2.1,0,3.1c-0.3,1.5-1,2.8-2.1,3.9s-2.4,1.8-4,2.2
		c-1.1,0.2-2.1,0.2-3.1,0c-1.5-0.3-2.8-1-3.9-2.1c-1.1-1.1-1.8-2.4-2.2-4c-1.4-6.8-7.9-11.1-14.6-9.8c-6.7,1.4-11.1,7.9-9.8,14.6
		c0.9,4.4,2.6,8.5,5,12c3.6,5.3,8.6,9.3,14.4,11.8c3.2,1.3,6.6,2.2,10.1,2.4h4.9c1.3-0.1,2.7-0.3,4-0.5c4.4-0.9,8.4-2.6,12-5.1
		c3-2.1,5.6-4.6,7.7-7.5V67C153.8,65.5,150.8,64.9,147.6,65.5z"/>
</g>
</svg>
