<svg width="189" height="209" viewBox="0 0 189 209" fill="none" xmlns="http://www.w3.org/2000/svg">
<path d="M28.7461 167.706C28.8675 167.797 28.9586 167.918 29.08 168.009C29.8692 168.768 29.2014 168.07 28.7461 167.706Z" fill="#222222"/>
<path d="M101.899 79.164C101.899 79.164 101.961 79.1022 102.085 79.0714C101.992 79.1022 101.93 79.1331 101.899 79.164Z" fill="#222222"/>
<path d="M41.7372 167.038C41.7069 167.068 41.6765 167.068 41.6461 167.099C41.5854 167.129 41.5247 167.159 41.464 167.22C41.4033 167.311 41.3123 167.402 41.2212 167.493C41.373 167.311 41.5551 167.19 41.7372 167.038Z" fill="#222222"/>
<path d="M38.8231 168.829C38.8231 168.799 38.7017 168.859 38.5499 168.92C38.5499 168.92 38.5195 168.92 38.5195 168.95C38.7017 168.859 38.8231 168.829 38.8231 168.829Z" fill="#222222"/>
<path d="M105.906 77.9179C105.511 77.9482 105.633 77.9482 105.906 77.9179V77.9179Z" fill="#222222"/>
<path d="M23.8887 161.18C24.3743 162.576 23.9494 161.21 23.7065 160.664C23.7673 160.846 23.828 161.028 23.8887 161.18Z" fill="#222222"/>
<path d="M117.046 80.4069C117.228 80.5587 117.38 80.6498 117.38 80.6498C117.38 80.6498 117.228 80.5283 117.046 80.4069Z" fill="#222222"/>
<path d="M110.247 77.7661C110.338 77.7965 110.429 77.8268 110.52 77.8572C110.55 77.8572 110.611 77.8572 110.641 77.8572C110.52 77.8268 110.368 77.7965 110.247 77.7661Z" fill="#222222"/>
<path d="M111.582 78.0089C111.491 77.9482 111.279 77.8875 110.945 77.8572C110.823 77.8572 110.732 77.8572 110.611 77.8268C110.914 77.8875 111.248 77.9179 111.521 77.9786C111.552 78.0089 111.582 78.0089 111.582 78.0089Z" fill="#222222"/>
<path d="M38.5198 168.92C38.0038 169.163 37.2449 169.557 38.5198 168.92V168.92Z" fill="#222222"/>
<path d="M16.7856 20.7312C16.8482 20.6999 16.8482 20.6999 16.7856 20.7312V20.7312Z" fill="#FFEF5F"/>
<path d="M18.8804 20.0931C20.8534 20.0627 19.8214 19.9413 18.8804 20.0931V20.0931Z" fill="#FFEF5F"/>
<path d="M183.097 187.77C177.937 185.038 172.595 186.768 169.347 191.382C168.163 193.082 166.949 194.751 165.704 196.421C165.279 196.998 164.824 197.605 164.369 198.181C164.247 198.333 163.246 199.608 162.972 199.972C160.453 203.099 157.843 206.195 155.171 209.17H181.124C183.037 206.65 184.919 204.101 186.709 201.52C189.745 197.21 187.62 190.168 183.097 187.77Z" fill="#FFEF5F"/>
<path d="M101.596 202.795C101.505 202.37 101.474 202.158 101.444 202.097C101.383 201.551 101.383 200.974 101.322 200.428C101.171 198.606 101.11 196.785 101.14 194.964C101.171 192.9 101.322 190.866 101.535 188.802C101.565 188.529 101.869 187.315 101.565 188.498C101.201 189.834 101.626 188.165 101.687 187.8C101.899 186.586 102.112 185.372 102.385 184.158C103.265 180.121 104.449 176.175 105.906 172.35C106.058 171.955 106.21 171.591 106.361 171.196C106.422 171.075 106.604 170.62 106.726 170.347C106.756 170.256 106.786 170.195 106.786 170.164C107.029 169.648 107.242 169.163 107.484 168.647C108.425 166.643 109.427 164.67 110.489 162.728C114.466 155.473 119.444 148.856 124.179 142.087C134.591 127.213 141.603 110.245 141.026 91.7594C140.722 82.5924 138.264 73.1219 131.555 66.5047C125.484 60.4946 116.803 57.5198 108.365 57.6413C90.1521 57.9752 76.432 71.5132 67.69 86.235C63.2583 93.7325 59.7675 101.958 57.4606 110.367C55.0019 119.291 54.2127 128.549 53.3324 137.716C53.1503 139.658 52.9378 141.601 52.695 143.544C52.695 143.574 52.695 143.574 52.695 143.604C52.6343 144.029 52.5736 144.454 52.4825 144.879C52.27 146.154 52.0272 147.429 51.7843 148.674C51.329 150.768 50.7827 152.863 50.1149 154.896C49.9934 155.23 49.1739 157.234 49.4471 156.748C49.2042 157.234 48.931 157.81 48.84 158.023C48.0811 159.51 47.2009 160.906 46.2902 162.272C46.3509 162.212 46.4116 162.151 46.5027 162.09C46.2599 162.303 46.0474 162.637 45.8349 162.879C45.1671 163.669 44.469 164.427 43.7405 165.156C43.1637 165.702 42.587 166.249 41.9799 166.765C41.9496 166.795 41.9192 166.795 41.9192 166.825C41.8585 166.886 41.7978 166.917 41.7371 166.977C41.555 167.129 41.3728 167.25 41.2211 167.433C41.3121 167.341 41.4032 167.25 41.4639 167.159C40.8568 167.524 40.2801 167.918 39.673 168.282C39.3088 168.495 38.9445 168.677 38.5499 168.859C38.7017 168.798 38.8231 168.768 38.8231 168.768C38.8231 168.768 38.7017 168.798 38.5195 168.859C37.2447 169.466 38.0035 169.072 38.5195 168.859C37.9732 169.041 36.8804 169.375 36.6679 169.436C36.4555 169.497 36.243 169.527 36.0305 169.557C35.3323 169.557 34.5128 169.709 33.845 169.679C33.6629 169.679 33.4504 169.648 33.2683 169.648C32.6612 169.497 32.0237 169.315 31.3863 169.163C31.2952 169.132 31.2345 169.132 31.1738 169.102C30.5667 168.768 29.9293 168.465 29.3526 168.07C29.2311 167.979 28.9276 167.766 28.6848 167.584C27.8652 166.795 27.1063 165.976 26.3171 165.156C26.1654 164.974 26.0136 164.761 25.9529 164.67C25.4976 164.003 25.0726 163.304 24.678 162.606C24.4655 162.212 24.0102 160.785 23.6156 160.481C23.5853 160.421 23.5549 160.33 23.5245 160.269C22.9782 158.691 22.5229 157.112 22.189 155.473C22.1586 155.352 22.1586 155.261 22.1282 155.139C22.189 154.562 21.9461 153.773 21.9461 153.196C21.8551 151.588 22.0979 149.979 22.0675 148.4C22.0979 148.127 22.1586 147.884 22.189 147.642C22.3711 146.64 22.5836 145.638 22.8264 144.667C23.2817 142.846 23.8281 141.024 24.4655 139.264C24.6476 138.778 24.7994 138.323 24.9815 137.868C25.0119 137.746 25.1333 137.473 25.2244 137.26C25.2547 137.23 25.2547 137.169 25.2547 137.169C25.4672 136.714 25.6493 136.259 25.8618 135.803C26.7117 133.982 27.6224 132.191 28.5937 130.431C30.415 127.092 32.4183 123.874 34.4824 120.687C38.6713 114.222 43.1941 107.969 46.8062 101.169C50.9648 93.3379 54.2127 84.869 56.125 76.1877C60.0103 58.7644 59.9193 39.4287 52.0879 23.0678C48.5668 15.6917 42.7388 8.92269 35.818 4.49097C29.565 0.423502 22.2193 -0.72996 14.8736 0.423502C9.40982 1.30377 4.43172 3.82318 0 7.1925V39.0948C0.667793 37.7592 1.36594 36.454 2.1248 35.1791C2.88365 33.9042 3.67286 32.6597 4.49243 31.4152C4.76562 30.9902 5.06916 30.5956 5.3727 30.201C5.64589 29.8975 5.85837 29.5636 6.1012 29.26C7.8921 27.1049 9.86513 25.1926 11.9899 23.3713C12.0506 23.341 12.081 23.3106 12.1417 23.2802C12.6577 22.9464 13.1434 22.5821 13.6594 22.2786C14.1754 21.975 14.6915 21.6715 15.2075 21.3679C15.6931 21.0947 16.6038 20.7912 16.7859 20.7305C16.6645 20.7608 16.2395 20.9126 15.2985 21.1858C16.3913 20.8519 17.4233 20.3966 18.5464 20.1234C18.6375 20.0931 18.7589 20.0931 18.8803 20.0627C18.6982 20.0627 18.4857 20.0627 18.2429 20.0627C18.8803 20.0627 19.5178 19.9413 20.1552 19.9413C20.6409 19.9413 21.1569 20.0323 21.6729 20.0323C22.2193 20.1538 22.7657 20.3055 23.2817 20.4877C23.3728 20.518 23.4942 20.5787 23.6156 20.6091C24.678 21.2162 25.71 21.884 26.7724 22.491C26.8939 22.5821 26.9849 22.6732 27.1063 22.7642C27.8652 23.432 28.5633 24.1302 29.2615 24.8587C29.8382 25.4658 30.3542 26.1032 30.931 26.7103C31.0524 26.8317 31.1435 26.9531 31.2042 27.0138C31.3559 27.2567 31.5381 27.4995 31.6898 27.712C32.8129 29.3207 33.7843 31.0206 34.6645 32.7811C34.9074 33.2364 35.0895 33.7221 35.3323 34.2078C35.8484 35.2702 35.0895 33.631 35.0895 33.6007C35.6055 33.9953 35.9394 35.9683 36.1519 36.5754C36.7893 38.5788 37.3054 40.6429 37.7 42.707C37.8517 43.5265 37.9732 44.3461 38.1249 45.196C38.1553 45.5603 38.216 45.9549 38.2463 46.3191C38.4588 48.4439 38.5802 50.5991 38.6106 52.7542C38.641 54.788 38.6106 56.852 38.5195 58.8858C38.4285 60.4035 38.5499 62.4069 38.2463 64.046C38.1856 64.1674 38.0642 64.471 38.0339 64.7745C37.9428 65.3209 37.8517 65.8369 37.7607 66.3833C37.6089 67.3243 37.4268 68.2652 37.2447 69.2062C36.8197 71.331 36.3037 73.4558 35.6966 75.5806C35.1502 77.5536 34.5128 79.4963 33.845 81.439C33.5111 82.3496 33.1772 83.2299 32.8433 84.1102C32.6915 84.4744 32.6005 84.9297 32.388 85.2636C32.4183 85.2333 32.4183 85.2029 32.4487 85.1726C32.388 85.294 32.3273 85.4154 32.2666 85.5065C25.8011 99.864 14.9646 111.672 8.40813 125.969C4.76562 133.861 1.97303 142.299 1.85161 151.102C1.73019 158.599 3.70322 166.279 7.34573 172.836C11.2918 179.939 17.393 185.342 24.9815 188.225C32.9951 191.261 42.162 189.864 49.5685 185.827C56.641 181.972 62.5601 175.325 66.233 168.222C70.6343 159.632 72.152 150.252 73.1841 140.751C73.6394 136.441 73.9733 132.131 74.4893 127.82C74.5197 127.517 74.55 127.183 74.5804 126.879C74.5804 126.819 74.6107 126.728 74.6107 126.636C74.7625 125.665 74.9143 124.663 75.0964 123.692C75.491 121.537 75.9463 119.412 76.4927 117.318C77.0087 115.345 77.5855 113.372 78.2229 111.429C78.7389 109.881 79.1942 107.969 79.9227 106.451C80.0441 106.299 80.1959 106.026 80.287 105.844C80.4995 105.358 80.7423 104.842 80.9548 104.356C81.3494 103.507 81.7743 102.626 82.1993 101.776C83.1706 99.8337 84.233 97.9213 85.3561 96.0394C86.3578 94.3699 87.3899 92.7308 88.513 91.122C88.6344 90.9399 89.2718 90.0596 89.5754 89.6346C89.6057 89.6043 89.6361 89.5739 89.6361 89.5436C90.0307 89.0579 90.4253 88.5722 90.8199 88.1169C92.0341 86.6903 93.309 85.3547 94.6749 84.0798C95.3123 83.5031 95.9801 82.9567 96.6176 82.38C97.0122 82.0764 97.4371 81.8032 97.8317 81.5301C99.2584 80.5891 100.776 79.7695 102.324 79.0106C102.385 78.9803 102.415 78.9499 102.476 78.9499C102.81 78.8285 103.204 78.7375 103.204 78.7375C104.054 78.4643 104.904 78.2518 105.754 78.0393C106.027 77.9786 106.483 77.9482 106.817 77.8572C107.454 77.8268 108.061 77.7661 108.699 77.7661C109.336 77.7661 109.943 77.7965 110.581 77.8268C110.489 77.7965 110.398 77.7661 110.307 77.7358C110.429 77.7661 110.55 77.7965 110.702 77.8268C110.823 77.8268 110.914 77.8268 111.036 77.8572C111.339 77.8572 111.582 77.9482 111.673 78.009C112.523 78.1911 113.312 78.4643 114.162 78.7071C114.223 78.7375 114.284 78.7375 114.314 78.7375C114.344 78.7678 114.375 78.7678 114.436 78.7982C115.103 79.1321 115.771 79.4963 116.378 79.9213C116.378 79.9213 116.53 80.0427 116.712 80.1641C116.803 80.2552 116.925 80.3766 117.107 80.5587C117.41 80.8623 117.866 81.1962 118.199 81.5908C118.23 81.7122 118.29 81.864 118.382 82.0157C118.594 82.4407 118.898 82.8656 119.11 83.2906C119.231 83.5334 119.353 83.7459 119.474 83.9887C119.717 84.8994 120.081 85.81 120.294 86.7206C120.415 87.2063 120.506 87.692 120.597 88.1776C120.628 88.3901 120.719 88.9972 120.749 89.2097C120.78 89.665 120.84 90.1507 120.84 90.3328C120.962 92.3969 120.962 94.4913 120.871 96.5554C120.81 97.5267 120.749 98.4981 120.658 99.4694C120.597 100.016 120.537 100.562 120.476 101.139C120.355 102.323 120.567 100.623 120.567 100.532C120.658 102.566 119.747 105.115 119.262 107.088C118.746 109.122 118.139 111.095 117.471 113.068C117.258 113.675 117.076 114.313 116.833 114.92C116.803 115.011 116.682 115.223 116.469 115.709C116.226 116.225 116.014 116.711 115.771 117.227C113.95 121.082 111.734 124.724 109.366 128.276C104.722 135.257 99.5012 141.874 95.1909 149.068C86.2364 164.003 80.1352 181.76 81.1976 199.365C81.3797 202.643 81.8047 205.922 82.4725 209.2H103.083C102.597 207.47 102.172 205.679 101.838 203.918C101.717 203.524 101.656 203.16 101.596 202.795ZM23.8888 161.18C23.8281 160.997 23.7674 160.846 23.7067 160.664C23.9191 161.21 24.3745 162.576 23.8888 161.18ZM29.049 168.009C28.9276 167.918 28.8365 167.797 28.7151 167.706C29.2008 168.07 29.8686 168.768 29.049 168.009ZM101.899 79.1624C101.93 79.1321 101.99 79.1017 102.081 79.0714C101.99 79.1017 101.899 79.1624 101.899 79.1624ZM105.906 77.9179C105.633 77.9483 105.511 77.9483 105.906 77.9179V77.9179ZM117.046 80.4069C117.228 80.5284 117.38 80.6498 117.38 80.6498C117.38 80.6801 117.228 80.5587 117.046 80.4069Z" fill="#FFEF5F"/>
<path d="M46.1689 162.515C46.1993 162.454 46.26 162.394 46.2903 162.333C45.1672 163.335 45.744 163.153 46.1689 162.515Z" fill="#FFEF5F"/>
<path d="M111.582 78.0089H111.552C111.279 77.9482 110.945 77.9179 110.641 77.8572C110.611 77.8572 110.55 77.8572 110.52 77.8572C111.491 78.1911 111.734 78.1304 111.582 78.0089Z" fill="#FFEF5F"/>
<path d="M38.551 168.92C38.5201 168.92 38.5201 168.92 38.4893 168.951C38.5201 168.92 38.5201 168.92 38.551 168.92Z" fill="#FFEF5F"/>
<path d="M41.7371 167.038C41.7978 166.977 41.8585 166.947 41.9192 166.886C42.2834 166.552 42.3138 166.309 41.4639 167.19C41.5246 167.159 41.5853 167.129 41.646 167.068C41.6763 167.068 41.7067 167.068 41.7371 167.038Z" fill="#FFEF5F"/>
</svg>
