<svg id="Calque_1" data-name="Calque 1" xmlns="http://www.w3.org/2000/svg" viewBox="0 0 125.43 78.39"><defs><style>.cls-1{fill:#084d95;}.cls-2{fill:#fff;}</style></defs><title>diners-club</title><rect class="cls-1" width="125.43" height="78.39" rx="4.18"/><path class="cls-2" d="M65.71,66.28c7.09,0,13.56-5.78,13.56-12.86,0-7.73-6.47-13.07-13.56-13.07h-6.1A12.78,12.78,0,0,0,46.54,53.42,13,13,0,0,0,59.61,66.28Z" transform="translate(0 -23.52)"/><path class="cls-1" d="M62.34,60.31v-14a7.52,7.52,0,0,1,0,14m-10.22-7a7.54,7.54,0,0,1,4.83-7v14a7.55,7.55,0,0,1-4.83-7m7.52-11.87A11.87,11.87,0,1,0,71.51,53.29,11.86,11.86,0,0,0,59.64,41.42" transform="translate(0 -23.52)"/><path class="cls-2" d="M33.28,75.12c0,1.06.76,1.18,1.43,1.18,3,0,3.93-2.23,3.93-4.27a4.12,4.12,0,0,0-4.29-4.42,9.79,9.79,0,0,0-1.07.06Zm-1.34-6.43c0-1.23-.65-1.15-1.26-1.16v-.36c.53,0,1.08,0,1.62,0s1.35,0,2.37,0c3.54,0,5.48,2.37,5.48,4.8,0,1.36-.8,4.77-5.65,4.77l-2,0-1.83,0v-.35c.82-.09,1.22-.11,1.26-1Z" transform="translate(0 -23.52)"/><path class="cls-2" d="M42.1,68.37a.68.68,0,1,1,0-1.35.67.67,0,0,1,.67.66.69.69,0,0,1-.67.69m-1.47,8h.26c.38,0,.66,0,.66-.46V72.22c0-.6-.21-.69-.72-1V71a15.38,15.38,0,0,0,1.47-.49.45.45,0,0,1,.25-.07c.07,0,.09.08.09.19v5.26c0,.46.3.46.69.46h.23v.35l-1.44,0-1.49,0Z" transform="translate(0 -23.52)"/><path class="cls-2" d="M44.86,72.3c0-.51-.15-.64-.79-.9v-.26c.59-.2,1.15-.37,1.81-.66,0,0,.08,0,.08.13v.9a4,4,0,0,1,2.37-1c1.17,0,1.58.85,1.58,1.92v3.53c0,.46.3.46.68.46h.25v.35l-1.45,0-1.48,0v-.35h.24c.39,0,.66,0,.66-.46V72.38c0-.78-.48-1.16-1.26-1.16a3.54,3.54,0,0,0-1.59.66v4.05c0,.46.3.46.69.46h.24v.35l-1.45,0-1.48,0v-.35h.25c.38,0,.65,0,.65-.46Z" transform="translate(0 -23.52)"/><path class="cls-2" d="M54.31,72.52c.34,0,.38-.18.38-.34a1.16,1.16,0,0,0-1.19-1.26c-.84,0-1.41.61-1.58,1.6ZM51.88,73a4.67,4.67,0,0,0,0,.79,2.29,2.29,0,0,0,2,2.38,2.67,2.67,0,0,0,1.85-.92l.19.19A3.2,3.2,0,0,1,53.4,77c-2.18,0-2.61-2.11-2.61-3,0-2.69,1.8-3.48,2.76-3.48a2.19,2.19,0,0,1,2.31,2.4l-.13.08Z" transform="translate(0 -23.52)"/><path class="cls-2" d="M56.19,76.39h.37c.38,0,.65,0,.65-.46V72.08c0-.42-.5-.51-.71-.62v-.2c1-.43,1.55-.78,1.68-.78s.12,0,.12.18v1.23h0c.34-.53.91-1.41,1.75-1.41a.75.75,0,0,1,.78.72.66.66,0,0,1-.64.7c-.43,0-.43-.33-.91-.33a1.16,1.16,0,0,0-1,1.14v3.22c0,.46.28.46.66.46h.77v.35l-1.92,0-1.63,0Z" transform="translate(0 -23.52)"/><path class="cls-2" d="M61.46,74.84a1.81,1.81,0,0,0,1.73,1.67c.81,0,1.11-.49,1.11-1,0-1.62-3-1.1-3-3.31a1.88,1.88,0,0,1,2.13-1.75,3.53,3.53,0,0,1,1.56.4l.1,1.39h-.32a1.41,1.41,0,0,0-1.49-1.35,1,1,0,0,0-1.07.9c0,1.61,3.18,1.11,3.18,3.26C65.4,76,64.67,77,63,77a3.53,3.53,0,0,1-1.67-.47l-.15-1.57Z" transform="translate(0 -23.52)"/><path class="cls-2" d="M77.78,69.65h-.35c-.26-1.6-1.39-2.24-2.93-2.24s-3.87,1-3.87,4.34c0,2.77,2,4.76,4.09,4.76a2.79,2.79,0,0,0,2.76-2.37l.31.08-.31,2a7.68,7.68,0,0,1-3,.73,4.88,4.88,0,0,1-5.24-5.16A5,5,0,0,1,74.4,67a10,10,0,0,1,3.24.73Z" transform="translate(0 -23.52)"/><path class="cls-2" d="M78.27,76.39h.26c.39,0,.66,0,.66-.46V68.3c0-.89-.21-.92-.73-1.07V67a8.6,8.6,0,0,0,1.42-.59,1.12,1.12,0,0,1,.3-.15c.08,0,.11.08.11.19v9.47c0,.46.3.46.68.46h.23v.35l-1.43,0-1.5,0Z" transform="translate(0 -23.52)"/><path class="cls-2" d="M87.07,76c0,.25.15.26.39.26H88v.28A14.88,14.88,0,0,0,86,77l-.07,0V75.8A3.7,3.7,0,0,1,83.53,77,1.47,1.47,0,0,1,82,75.32V71.81c0-.36-.06-.7-.82-.77v-.26c.49,0,1.58-.1,1.76-.1s.16.1.16.4v3.54c0,.41,0,1.59,1.19,1.59A3,3,0,0,0,86,75.37V71.68c0-.27-.65-.42-1.15-.56v-.24c1.24-.09,2-.2,2.14-.2s.11.1.11.25Z" transform="translate(0 -23.52)"/><path class="cls-2" d="M89.8,75.19a1.47,1.47,0,0,0,1.41,1.4c1.47,0,2.08-1.44,2.08-2.66a2.61,2.61,0,0,0-2.19-2.71,2.12,2.12,0,0,0-1.3.64Zm0-3.73a3.5,3.5,0,0,1,2-1,2.67,2.67,0,0,1,2.55,2.88A3.47,3.47,0,0,1,91.12,77a4.06,4.06,0,0,1-1.91-.48l-.41.31-.29-.15a16.39,16.39,0,0,0,.19-2.44V68.3c0-.89-.2-.92-.72-1.07V67a8.44,8.44,0,0,0,1.41-.59,1.53,1.53,0,0,1,.3-.15c.08,0,.11.08.11.19Z" transform="translate(0 -23.52)"/><path class="cls-2" d="M30.66,84.71h.11c.26,0,.55,0,.55-.42V80.38c0-.39-.29-.43-.55-.43h-.11v-.22c.29,0,.74,0,1.11,0l1.17,0V80h-.11c-.27,0-.55,0-.55.43v3.91c0,.39.28.42.55.42h.11v.23l-1.18,0c-.37,0-.81,0-1.1,0Z" transform="translate(0 -23.52)"/><path class="cls-2" d="M32.9,84.9v-.15h-.07c-.26,0-.58,0-.58-.46V80.38c0-.41.32-.46.58-.46h.07v-.16l-1.13,0c-.36,0-.79,0-1.08,0v.16h.07c.27,0,.59,0,.59.46v3.91c0,.41-.32.46-.59.46h-.07v.15c.29,0,.71,0,1.07,0l1.14,0m0,.07-1.18,0c-.37,0-.8,0-1.1,0h0v-.29h.13c.28,0,.52,0,.52-.39V80.38c0-.37-.24-.39-.52-.39h-.13V79.7h0c.3,0,.74,0,1.11,0l1.17,0h0V80h-.14c-.27,0-.52,0-.52.39v3.91c0,.36.25.38.52.39H33V85Z" transform="translate(0 -23.52)"/><path class="cls-2" d="M38.06,83.47V80.66c0-.62-.42-.71-.64-.71h-.17v-.22c.35,0,.7,0,1.05,0l.91,0V80h-.11c-.31,0-.66.06-.66,1v3.4a6,6,0,0,0,0,.75h-.28l-3.84-4.28v3.07c0,.65.12.87.7.87h.13v.23l-1,0-1,0v-.23h.1c.52,0,.67-.35.67-.94V80.62a.67.67,0,0,0-.67-.67h-.1v-.22l.85,0c.23,0,.45,0,.67,0Z" transform="translate(0 -23.52)"/><path class="cls-2" d="M38.05,83.45Zm0,0,0,0ZM38.21,85h.25a4.29,4.29,0,0,1,0-.72V80.9c0-.89.37-1,.69-1h.08v-.16l-.88,0c-.35,0-.68,0-1,0v.16h.13a.66.66,0,0,1,.68.74v2.82h0l0,0-3.32-3.75c-.22,0-.44,0-.67,0l-.82,0v.16h.07a.71.71,0,0,1,.71.71v3.14c0,.59-.17,1-.71,1h-.07v.16l1,0c.32,0,.63,0,.93,0v-.15h-.09c-.59,0-.73-.26-.73-.91V80.68Zm.28.06h-.3L34.4,80.85v3c0,.65.11.83.67.84h.16V85h0c-.33,0-.65,0-1,0s-.67,0-1,0h0v-.29h.13c.5,0,.64-.32.64-.91V80.63a.64.64,0,0,0-.64-.64h-.13V79.7h0l.85,0c.23,0,.44,0,.7,0l3.28,3.69V80.66c0-.6-.41-.67-.62-.67h-.2V79.7h0c.35,0,.7,0,1.05,0l.91,0h0V80h-.15c-.31,0-.62,0-.63.91v3.4a5.7,5.7,0,0,0,0,.74v0Z" transform="translate(0 -23.52)"/><path class="cls-2" d="M40.34,80.1c-.56,0-.58.14-.69.68h-.23c0-.21.07-.42.1-.63s0-.42,0-.64h.18c.06.23.24.22.45.22H44c.21,0,.39,0,.41-.23l.18,0c0,.2-.07.4-.09.6s0,.41,0,.61l-.22.08c0-.27-.06-.72-.56-.72H42.52v4c0,.58.26.64.62.64h.14v.23c-.29,0-.81,0-1.22,0s-1,0-1.26,0v-.23H41c.41,0,.61,0,.61-.62v-4Z" transform="translate(0 -23.52)"/><path class="cls-2" d="M43.28,85c-.29,0-.81,0-1.22,0s-1,0-1.26,0h0v-.29H41c.41,0,.57,0,.58-.59v-4H40.34v-.07H41.6v4c0,.6-.24.66-.65.66h-.11v.15c.29,0,.79,0,1.22,0s.89,0,1.19,0v-.15h-.11c-.36,0-.65-.09-.65-.68v-4h1.25c.5,0,.57.43.58.7l.17,0c0-.2,0-.39,0-.59s0-.38.08-.57l-.12,0c0,.22-.24.23-.43.22H40.15c-.18,0-.37,0-.44-.21h-.12c0,.2,0,.4,0,.6s-.06.4-.09.6h.16c.1-.52.16-.69.72-.68v.07c-.55,0-.54.1-.66.65v0h-.29v0c0-.21.07-.42.09-.64a4.23,4.23,0,0,0,.05-.63v0h.23v0c0,.18.19.18.38.19H44c.21,0,.36,0,.37-.2v0h0l.21,0v0l-.09.61c0,.2,0,.4,0,.6v0h0l-.26.09v0c0-.28,0-.68-.52-.68H42.55v3.93c0,.56.23.6.59.61h.17V85Z" transform="translate(0 -23.52)"/><path class="cls-2" d="M44.85,84.71H45c.27,0,.55,0,.55-.42V80.38c0-.39-.28-.43-.55-.43h-.11v-.22c.46,0,1.23,0,1.86,0l1.91,0c0,.32,0,.82,0,1.14l-.22.06c0-.48-.12-.87-.91-.87h-1v2h.89c.45,0,.55-.25.59-.65h.22c0,.29,0,.58,0,.87s0,.57,0,.85l-.22,0c0-.44-.06-.73-.58-.73h-.9v1.73c0,.49.44.49.91.49.9,0,1.29-.06,1.52-.91l.21,0c-.1.4-.19.79-.26,1.19-.47,0-1.33,0-2,0s-1.56,0-2,0Z" transform="translate(0 -23.52)"/><path class="cls-2" d="M48.81,84.9c.07-.37.16-.75.25-1.13l-.15,0c-.22.83-.66.91-1.53.9-.48,0-1,0-1-.52V82.35h.93c.52,0,.57.31.61.74l.16,0c0-.27,0-.55,0-.82s0-.56,0-.84H48c0,.39-.16.66-.62.66h-.92V80H47.5c.78,0,.9.39.94.86l.16,0c0-.21,0-.48,0-.73v-.36l-1.87,0c-.61,0-1.37,0-1.83,0v.16H45c.26,0,.58,0,.58.46v3.91c0,.41-.32.45-.58.46h-.08v.15c.44,0,1.3,0,2,0s1.49,0,2,0m0,.07c-.47,0-1.33,0-2,0s-1.56,0-2,0h0v-.29H45c.27,0,.51,0,.52-.39V80.38c0-.36-.25-.39-.52-.39h-.14V79.7h0c.46,0,1.23,0,1.86,0l1.91,0h0v0c0,.11,0,.25,0,.39s0,.54,0,.75v0h0l-.26.07v0c-.05-.48-.11-.83-.88-.84h-1V82h.86c.43,0,.51-.22.56-.63v0h.29v0q0,.44,0,.87c0,.28,0,.56,0,.85v0h0l-.26,0v0c0-.46-.06-.71-.55-.71h-.87v1.7c0,.46.4.45.89.46.89,0,1.25,0,1.48-.89v0h0l.24.06v0c-.1.39-.19.79-.25,1.18v0Z" transform="translate(0 -23.52)"/><path class="cls-2" d="M51.06,82.25h.36c.75,0,1.15-.28,1.15-1.16A1,1,0,0,0,51.48,80a3.05,3.05,0,0,0-.42,0Zm-1-1.73c0-.54-.3-.57-.53-.57h-.13v-.22c.24,0,.7,0,1.16,0s.8,0,1.2,0c.93,0,1.77.25,1.77,1.31a1.42,1.42,0,0,1-1,1.32l1.27,1.91a.83.83,0,0,0,.73.44v.23c-.25,0-.49,0-.74,0l-.7,0a21.24,21.24,0,0,1-1.55-2.42h-.49v1.6c0,.57.27.59.61.59h.13v.23c-.42,0-.85,0-1.28,0s-.71,0-1.08,0v-.23h.13c.28,0,.53-.12.53-.4Z" transform="translate(0 -23.52)"/><path class="cls-2" d="M51.42,82.22c.74,0,1.11-.26,1.12-1.13A1,1,0,0,0,51.48,80a2.79,2.79,0,0,0-.39,0v2.16Zm-.36.06h0V80h0a3.39,3.39,0,0,1,.43,0,1.06,1.06,0,0,1,1.13,1.12c0,.89-.44,1.19-1.19,1.19Zm0,.21h.52a20.92,20.92,0,0,0,1.52,2.4l.7,0c.24,0,.47,0,.7,0v-.16a.86.86,0,0,1-.72-.46l-1.29-1.94h0a1.37,1.37,0,0,0,1-1.29c0-1-.81-1.27-1.74-1.28-.4,0-.76,0-1.2,0s-.89,0-1.13,0v.16h.1c.24,0,.56,0,.56.6v3.79c0,.3-.27.44-.56.44h-.1v.15c.36,0,.7,0,1.05,0s.84,0,1.25,0v-.15h-.1c-.34,0-.64,0-.64-.63V82.49ZM54.54,85c-.26,0-.49,0-.74,0s-.46,0-.72,0a19.83,19.83,0,0,1-1.55-2.41h-.44v1.57c0,.56.23.55.58.56h.17V85h0l-1.28,0c-.36,0-.71,0-1.08,0h0v-.29h.16c.27,0,.5-.12.5-.37V80.52c0-.53-.26-.53-.5-.53h-.16V79.7h0c.24,0,.7,0,1.16,0s.8,0,1.2,0c.94,0,1.8.26,1.8,1.34a1.41,1.41,0,0,1-1,1.33l1.26,1.88a.81.81,0,0,0,.7.43h0V85Z" transform="translate(0 -23.52)"/><path class="cls-2" d="M59.6,83.47V80.66c0-.62-.42-.71-.65-.71H58.8v-.22c.35,0,.69,0,1,0s.61,0,.92,0V80h-.11c-.31,0-.66.06-.66,1v3.4a4.53,4.53,0,0,0,0,.75h-.28l-3.84-4.28v3.07c0,.65.12.87.7.87h.12v.23c-.32,0-.64,0-1,0l-1,0v-.23h.1c.52,0,.67-.35.67-.94V80.62a.67.67,0,0,0-.68-.67h-.09v-.22l.85,0c.23,0,.44,0,.67,0Z" transform="translate(0 -23.52)"/><path class="cls-2" d="M59.58,83.45Zm0,0,0,0ZM59.75,85H60a5.69,5.69,0,0,1,0-.72V80.9c0-.89.38-1,.7-1h.08v-.16c-.29,0-.59,0-.89,0s-.67,0-1,0v.16H59a.65.65,0,0,1,.68.74v2.82h0l0,0-3.32-3.75c-.22,0-.44,0-.67,0l-.82,0v.16h.06a.7.7,0,0,1,.71.7v3.14c0,.6-.16,1-.7,1h-.07v.15c.32,0,.65,0,1,0s.62,0,.93,0v-.15h-.09c-.59,0-.74-.26-.74-.91V80.68Zm.28.06h-.31l-3.78-4.22v3c0,.65.1.83.67.84h.16V85h0c-.32,0-.64,0-1,0l-1,0h0v-.29h.14c.49,0,.63-.32.64-.92V80.62a.64.64,0,0,0-.65-.63h-.13V79.7h0l.85,0c.22,0,.44,0,.69,0l3.28,3.69V80.66c0-.6-.4-.67-.62-.67h-.19V79.7h0c.35,0,.69,0,1,0s.61,0,.92,0h0V80h-.15c-.31,0-.62,0-.63.91v3.4a4.41,4.41,0,0,0,0,.74v0Z" transform="translate(0 -23.52)"/><path class="cls-2" d="M63.05,80.57h0l-.7,2.11h1.39ZM62,83.87a3.3,3.3,0,0,0-.16.58c0,.23.31.26.56.26h.08v.23c-.3,0-.61,0-.91,0l-.8,0v-.23h.05a.67.67,0,0,0,.64-.48l1.2-3.43a6,6,0,0,0,.27-.92,3.63,3.63,0,0,0,.68-.32l.06,0s0,0,0,0a1.34,1.34,0,0,1,.07.18l1.37,3.9c.09.27.18.54.28.77a.47.47,0,0,0,.49.29h0v.23c-.34,0-.67,0-1,0l-1.12,0v-.23h.08c.17,0,.46,0,.46-.21a2,2,0,0,0-.15-.54l-.29-.87H62.2Z" transform="translate(0 -23.52)"/><path class="cls-2" d="M63,80.58h0Zm-.64,2.06h1.31l-.65-2Zm-.08.07L63,80.53h0v0h0v0h0l.71,2.18Zm1.52,2.19,1.09,0c.34,0,.67,0,1,0v-.15h0a.51.51,0,0,1-.52-.32c-.1-.23-.19-.5-.28-.77l-1.37-3.9-.06-.18h-.07a2.76,2.76,0,0,1-.67.29,6.28,6.28,0,0,1-.27.94l-1.2,3.42a.71.71,0,0,1-.67.51h0v.15c.26,0,.52,0,.78,0l.86,0v-.15h0c-.25,0-.59,0-.6-.3a4.12,4.12,0,0,1,.17-.59h0l.24-.8h1.74l.3.89a2.11,2.11,0,0,1,.16.55c0,.23-.33.24-.5.25h0Zm2.11.07c-.33,0-.67,0-1,0l-1.12,0h0v-.29h.11c.17,0,.43,0,.43-.18a2.66,2.66,0,0,0-.15-.53l-.28-.84H62.22l-.23.75a3.51,3.51,0,0,0-.16.57c0,.19.28.23.53.23h.11V85h0l-.9,0c-.27,0-.54,0-.81,0h0v-.29h.08a.64.64,0,0,0,.61-.46l1.2-3.43a8.6,8.6,0,0,0,.29-.94,4,4,0,0,0,.68-.32l.07,0a.08.08,0,0,1,.08,0c0,.07,0,.13.07.19l1.37,3.9c.09.26.18.54.28.76a.43.43,0,0,0,.46.28H66V85Z" transform="translate(0 -23.52)"/><path class="cls-2" d="M66.26,80.1c-.55,0-.58.14-.69.68h-.22l.09-.63a4.49,4.49,0,0,0,0-.64h.18c.06.23.25.22.45.22H70c.2,0,.38,0,.4-.23l.18,0c0,.2-.06.4-.08.6s0,.41,0,.61l-.22.08c0-.27,0-.72-.55-.72H68.44v4c0,.58.26.64.62.64h.14v.23l-1.21,0c-.45,0-1,0-1.26,0v-.23h.14c.41,0,.62,0,.62-.62v-4Z" transform="translate(0 -23.52)"/><path class="cls-2" d="M69.2,85l-1.21,0c-.45,0-1,0-1.26,0h0v-.29h.18c.41,0,.57,0,.59-.59v-4H66.26v-.07h1.26v4c0,.6-.24.65-.65.66h-.11v.15c.29,0,.79,0,1.23,0l1.18,0v-.15h-.11c-.36,0-.65-.09-.65-.68v-4h1.26c.5,0,.56.43.58.7l.16,0c0-.2,0-.39,0-.59s0-.38.08-.57l-.11,0c0,.22-.25.23-.43.22H66.07c-.18,0-.37,0-.44-.21h-.12a4,4,0,0,1,0,.6c0,.21-.06.4-.09.6h.16c.1-.52.17-.69.72-.68v.07c-.55,0-.54.1-.66.65v0h-.29v0c0-.21.07-.42.09-.64a4.23,4.23,0,0,0,0-.63v0h.23v0c0,.18.19.18.38.19H70c.2,0,.35,0,.37-.2v0h0l.22,0v0c0,.2-.06.41-.08.61s0,.4,0,.6v0h0l-.26.09v0c0-.28,0-.68-.52-.68h-1.2v3.93c0,.56.24.6.59.61h.17V85Z" transform="translate(0 -23.52)"/><path class="cls-2" d="M70.81,84.71h.11c.27,0,.55,0,.55-.42V80.38c0-.39-.28-.43-.55-.43h-.11v-.22c.29,0,.74,0,1.11,0l1.17,0V80H73c-.27,0-.55,0-.55.43v3.91c0,.39.28.42.55.42h.11v.23l-1.18,0c-.37,0-.81,0-1.1,0Z" transform="translate(0 -23.52)"/><path class="cls-2" d="M73.05,84.9v-.15H73c-.27,0-.58,0-.58-.46V80.38c0-.41.31-.46.58-.46h.07v-.16l-1.13,0c-.36,0-.79,0-1.08,0v.16h.08c.26,0,.58,0,.58.46v3.91c0,.41-.32.46-.58.46h-.08v.15c.29,0,.71,0,1.07,0l1.14,0m0,.07-1.18,0-1.1,0h0v-.29h.14c.27,0,.51,0,.52-.39V80.38c0-.36-.25-.39-.52-.39h-.14V79.7h0c.3,0,.74,0,1.11,0l1.17,0h0V80H73c-.27,0-.52,0-.52.39v3.91c0,.36.25.39.52.39h.14V85Z" transform="translate(0 -23.52)"/><path class="cls-2" d="M76.18,84.72c1.44,0,1.7-1.28,1.7-2.36S77.29,80,76.05,80s-1.69,1.16-1.69,2.16c0,1.33.61,2.61,1.82,2.61m-.12-5.1a2.61,2.61,0,0,1,2.86,2.57,2.74,2.74,0,0,1-2.82,2.86,2.63,2.63,0,0,1-2.79-2.68,2.71,2.71,0,0,1,2.75-2.75" transform="translate(0 -23.52)"/><path class="cls-2" d="M74.32,82.11c0-1,.39-2.2,1.73-2.2s1.85,1.35,1.86,2.45-.26,2.39-1.73,2.39v-.06c1.41,0,1.66-1.25,1.66-2.33S77.26,80,76.05,80s-1.66,1.14-1.66,2.13c0,1.33.6,2.58,1.79,2.58v.06c-1.24,0-1.86-1.3-1.86-2.64m-1,.26a2.74,2.74,0,0,1,2.78-2.78v.06a2.69,2.69,0,0,0-2.72,2.72A2.61,2.61,0,0,0,76.1,85a2.72,2.72,0,0,0,2.79-2.83,2.58,2.58,0,0,0-2.83-2.54v-.06A2.65,2.65,0,0,1,79,82.19a2.77,2.77,0,0,1-2.85,2.89,2.67,2.67,0,0,1-2.82-2.71" transform="translate(0 -23.52)"/><path class="cls-2" d="M84,83.47V80.66c0-.62-.42-.71-.65-.71h-.16v-.22c.35,0,.69,0,1,0s.61,0,.92,0V80H85c-.32,0-.67.06-.67,1v3.4a4.5,4.5,0,0,0,0,.75H84.1l-3.85-4.28v3.07c0,.65.13.87.71.87h.12v.23c-.32,0-.64,0-1,0s-.68,0-1,0v-.23h.11c.52,0,.67-.35.67-.94V80.62A.67.67,0,0,0,79.2,80h-.1v-.22c.29,0,.58,0,.86,0s.44,0,.67,0Z" transform="translate(0 -23.52)"/><path class="cls-2" d="M83.93,83.45Zm0,0,0,0ZM84.1,85h.24a5.69,5.69,0,0,1,0-.72V80.9c0-.9.38-1,.7-1h.08v-.16c-.3,0-.59,0-.89,0s-.67,0-1,0v.16h.13a.66.66,0,0,1,.68.74v2.82h0l0,0-3.32-3.75c-.22,0-.44,0-.67,0l-.82,0v.16h.06a.7.7,0,0,1,.71.7v3.15c0,.59-.16,1-.7,1h-.07v.15c.32,0,.65,0,1,0s.62,0,.93,0v-.15H81c-.58,0-.73-.26-.73-.91V80.68Zm.28.06h-.31l-3.78-4.22v3c0,.65.1.83.66.84h.16V85h0c-.32,0-.64,0-1,0s-.68,0-1,0h0v-.29h.14c.49,0,.63-.32.64-.91V80.62A.64.64,0,0,0,79.2,80h-.13V79.7h0c.29,0,.58,0,.86,0s.44,0,.69,0l3.28,3.69V80.66c0-.6-.4-.67-.62-.67h-.19V79.7h0c.35,0,.69,0,1,0s.61,0,.92,0h0V80H85c-.31,0-.63,0-.63.91v3.4a4.35,4.35,0,0,0,0,.74v0Z" transform="translate(0 -23.52)"/><path class="cls-2" d="M87.4,80.57h0l-.69,2.11h1.4Zm-1.09,3.3a3.55,3.55,0,0,0-.17.58c0,.23.32.26.57.26h.08v.23c-.3,0-.61,0-.91,0l-.8,0v-.23h0a.68.68,0,0,0,.65-.48L87,80.8a6,6,0,0,0,.27-.92,3.63,3.63,0,0,0,.68-.32l.06,0s0,0,0,0l.07.18,1.37,3.9c.09.27.18.54.28.77a.47.47,0,0,0,.49.29h.05v.23c-.34,0-.68,0-1,0l-1.11,0v-.23h.08c.17,0,.46,0,.46-.21a2,2,0,0,0-.15-.54l-.29-.87H86.55Z" transform="translate(0 -23.52)"/><path class="cls-2" d="M87.37,80.58h0Zm-.64,2.06H88l-.65-2Zm-.09.07.72-2.18h0v0h0v0h0l.71,2.18Zm1.53,2.19,1.08,0c.35,0,.68,0,1,0v-.15h0a.51.51,0,0,1-.52-.32c-.1-.23-.19-.5-.28-.77l-1.37-3.9a1.77,1.77,0,0,1-.06-.17h-.07a2.76,2.76,0,0,1-.67.29,6.28,6.28,0,0,1-.27.94l-1.2,3.42a.71.71,0,0,1-.68.51h0v.15l.77,0c.29,0,.59,0,.87,0v-.15h0c-.24,0-.58,0-.59-.3a3.12,3.12,0,0,1,.17-.59h0l.25-.8h1.73l.3.89a2.44,2.44,0,0,1,.15.55c0,.23-.32.24-.49.25h0Zm2.11.07c-.33,0-.67,0-1,0l-1.11,0h0v-.29h.11c.17,0,.43,0,.43-.18A2.66,2.66,0,0,0,88.5,84l-.28-.84H86.57l-.23.75a2.7,2.7,0,0,0-.16.57c0,.19.28.23.52.23h.12V85h0l-.91,0-.8,0h0v-.29h.07a.64.64,0,0,0,.62-.46l1.2-3.43a8.6,8.6,0,0,0,.29-.94,3.63,3.63,0,0,0,.68-.32l.07,0a.08.08,0,0,1,.08,0l.07.18,1.37,3.9c.09.26.18.54.28.76a.43.43,0,0,0,.46.28h.08V85Z" transform="translate(0 -23.52)"/><path class="cls-2" d="M92.16,84.21c0,.3.21.38.45.41a4.7,4.7,0,0,0,1,0,1.09,1.09,0,0,0,.71-.4,1.66,1.66,0,0,0,.23-.54h.22c-.08.42-.19.84-.28,1.27l-2,0c-.66,0-1.32,0-2,0v-.23h.1c.27,0,.56,0,.56-.5V80.38c0-.39-.29-.43-.56-.43h-.1v-.22c.39,0,.78,0,1.17,0s.76,0,1.14,0V80h-.19c-.28,0-.51,0-.51.41Z" transform="translate(0 -23.52)"/><path class="cls-2" d="M94.46,84.9c.08-.4.18-.8.26-1.2h-.15a2.18,2.18,0,0,1-.23.53,1.13,1.13,0,0,1-.74.41l-.57,0h-.42c-.25,0-.48-.13-.48-.45V80.36c0-.42.26-.44.54-.44h.15v-.16c-.36,0-.72,0-1.1,0s-.76,0-1.14,0v.16h.07c.26,0,.59,0,.59.46v3.83c0,.49-.32.54-.59.54h-.07v.15c.64,0,1.29,0,1.94,0s1.29,0,1.94,0m0,.07-2,0c-.66,0-1.32,0-2,0h0v-.29h.14c.27,0,.52,0,.53-.47V80.38c0-.36-.26-.39-.53-.39h-.14V79.7h0c.4,0,.79,0,1.18,0s.75,0,1.14,0h0V80h-.22c-.29,0-.47,0-.47.37v3.85c0,.27.18.35.41.38l.42,0,.56,0a1.05,1.05,0,0,0,.7-.39,1.71,1.71,0,0,0,.22-.53v0h.28v0c-.08.42-.18.84-.28,1.26v0Z" transform="translate(0 -23.52)"/></svg>