<?xml version="1.0" encoding="utf-8"?>
<!-- Generator: Adobe Illustrator 24.0.3, SVG Export Plug-In . SVG Version: 6.00 Build 0)  -->
<svg version="1.1" id="Calque_1" xmlns="http://www.w3.org/2000/svg" xmlns:xlink="http://www.w3.org/1999/xlink" x="0px" y="0px"
	 viewBox="0 0 25 25" style="enable-background:new 0 0 25 25;" xml:space="preserve">
<style type="text/css">
	.st0{fill:#004A98;}
	.st1{fill:#FFFFFF;}
	.st2{fill:#1D1D1B;}
</style>
<g>
	<path class="st0" d="M4.8,15.7c1.8,0,3.4-1.4,3.4-3.2c0-1.9-1.6-3.3-3.4-3.3H3.3C1.5,9.3,0,10.6,0,12.5c0,1.8,1.5,3.2,3.3,3.2H4.8z
		"/>
	<path class="st1" d="M3.9,14.2v-3.5c0.7,0.3,1.2,1,1.2,1.8C5.1,13.3,4.6,14,3.9,14.2 M1.4,12.5c0-0.8,0.5-1.5,1.2-1.8v3.5
		C1.9,14,1.4,13.3,1.4,12.5 M3.3,9.5c-1.6,0-3,1.3-3,3c0,1.6,1.3,3,3,3c1.6,0,3-1.3,3-3C6.2,10.9,4.9,9.5,3.3,9.5"/>
	<path class="st2" d="M9.6,13.3c0,0.3,0.2,0.3,0.4,0.3c0.7,0,1-0.6,1-1.1c0-0.6-0.4-1.1-1.1-1.1c-0.1,0-0.2,0-0.3,0V13.3z M9.3,11.7
		c0-0.3-0.2-0.3-0.3-0.3v-0.1c0.1,0,0.3,0,0.4,0c0.1,0,0.3,0,0.6,0c0.9,0,1.4,0.6,1.4,1.2c0,0.3-0.2,1.2-1.4,1.2c-0.2,0-0.3,0-0.5,0
		c-0.2,0-0.3,0-0.5,0v-0.1c0.2,0,0.3,0,0.3-0.3V11.7z"/>
	<path class="st2" d="M11.8,11.6c-0.1,0-0.2-0.1-0.2-0.2c0-0.1,0.1-0.2,0.2-0.2c0.1,0,0.2,0.1,0.2,0.2C12,11.5,11.9,11.6,11.8,11.6
		 M11.4,13.6L11.4,13.6c0.2,0,0.2,0,0.2-0.1v-0.9c0-0.1-0.1-0.2-0.2-0.2v-0.1c0.2,0,0.4-0.1,0.4-0.1c0,0,0,0,0.1,0c0,0,0,0,0,0v1.3
		c0,0.1,0.1,0.1,0.2,0.1h0.1v0.1c-0.1,0-0.2,0-0.4,0C11.7,13.7,11.6,13.7,11.4,13.6L11.4,13.6z"/>
	<path class="st2" d="M12.5,12.6c0-0.1,0-0.2-0.2-0.2v-0.1c0.1,0,0.3-0.1,0.4-0.2c0,0,0,0,0,0v0.2c0.2-0.1,0.4-0.3,0.6-0.3
		c0.3,0,0.4,0.2,0.4,0.5v0.9c0,0.1,0.1,0.1,0.2,0.1H14v0.1c-0.1,0-0.2,0-0.4,0c-0.1,0-0.2,0-0.4,0v-0.1h0.1c0.1,0,0.2,0,0.2-0.1
		v-0.9c0-0.2-0.1-0.3-0.3-0.3c-0.1,0-0.3,0.1-0.4,0.2v1c0,0.1,0.1,0.1,0.2,0.1H13v0.1c-0.1,0-0.2,0-0.4,0c-0.1,0-0.2,0-0.4,0v-0.1
		h0.1c0.1,0,0.2,0,0.2-0.1V12.6z"/>
	<path class="st2" d="M14.8,12.7C14.9,12.7,14.9,12.6,14.8,12.7c0.1-0.3,0-0.4-0.2-0.4c-0.2,0-0.4,0.2-0.4,0.4H14.8z M14.2,12.8
		c0,0,0,0.1,0,0.2c0,0.3,0.2,0.6,0.5,0.6c0.2,0,0.3-0.1,0.5-0.2l0,0c-0.2,0.2-0.4,0.4-0.6,0.4c-0.5,0-0.7-0.5-0.7-0.7
		c0-0.7,0.4-0.9,0.7-0.9c0.3,0,0.6,0.2,0.6,0.5c0,0,0,0,0,0.1l0,0H14.2z"/>
	<path class="st2" d="M15.3,13.6L15.3,13.6c0.2,0,0.3,0,0.3-0.1v-1c0-0.1-0.1-0.1-0.2-0.2v-0.1c0.2-0.1,0.4-0.2,0.4-0.2c0,0,0,0,0,0
		v0.3h0c0.1-0.1,0.2-0.4,0.4-0.4c0.1,0,0.2,0.1,0.2,0.2c0,0.1-0.1,0.2-0.2,0.2c-0.1,0-0.1-0.1-0.2-0.1c-0.1,0-0.2,0.1-0.2,0.3v0.8
		c0,0.1,0.1,0.1,0.2,0.1h0.2v0.1c-0.2,0-0.3,0-0.5,0C15.6,13.7,15.4,13.7,15.3,13.6L15.3,13.6z"/>
	<path class="st2" d="M16.6,13.2c0,0.2,0.2,0.4,0.4,0.4c0.2,0,0.3-0.1,0.3-0.2c0-0.4-0.7-0.3-0.7-0.8c0-0.2,0.2-0.4,0.5-0.4
		c0.1,0,0.3,0,0.4,0.1l0,0.3h-0.1c0-0.2-0.2-0.3-0.4-0.3c-0.1,0-0.3,0.1-0.3,0.2c0,0.4,0.8,0.3,0.8,0.8c0,0.2-0.2,0.5-0.6,0.5
		c-0.1,0-0.3,0-0.4-0.1L16.6,13.2L16.6,13.2z"/>
	<path class="st2" d="M20.7,11.9L20.7,11.9c-0.1-0.4-0.4-0.6-0.8-0.6c-0.4,0-1,0.3-1,1.1c0,0.7,0.5,1.2,1,1.2c0.3,0,0.6-0.2,0.7-0.6
		l0.1,0l-0.1,0.5c-0.1,0.1-0.5,0.2-0.8,0.2c-0.8,0-1.3-0.5-1.3-1.3c0-0.7,0.6-1.2,1.3-1.2c0.3,0,0.5,0.1,0.8,0.2L20.7,11.9z"/>
	<path class="st2" d="M20.8,13.6L20.8,13.6c0.2,0,0.2,0,0.2-0.1v-1.9c0-0.2-0.1-0.2-0.2-0.3v-0.1c0.1,0,0.3-0.1,0.4-0.1
		c0,0,0.1,0,0.1,0c0,0,0,0,0,0v2.4c0,0.1,0.1,0.1,0.2,0.1h0.1v0.1c-0.1,0-0.2,0-0.4,0C21,13.7,20.9,13.7,20.8,13.6L20.8,13.6z"/>
	<path class="st2" d="M23,13.5C23,13.6,23,13.6,23,13.5c0.1,0.1,0.2,0.1,0.2,0.1v0.1c-0.1,0-0.4,0.1-0.5,0.1l0,0v-0.3
		c-0.2,0.2-0.4,0.3-0.6,0.3c-0.2,0-0.4-0.1-0.4-0.4v-0.9c0-0.1,0-0.2-0.2-0.2v-0.1c0.1,0,0.4,0,0.4,0c0,0,0,0,0,0.1v0.9
		c0,0.1,0,0.4,0.3,0.4c0.1,0,0.3-0.1,0.4-0.2v-0.9c0-0.1-0.2-0.1-0.3-0.1v-0.1c0.3,0,0.5,0,0.5,0c0,0,0,0,0,0.1V13.5z"/>
	<path class="st2" d="M23.6,13.3c0,0.1,0.1,0.3,0.4,0.3c0.4,0,0.5-0.4,0.5-0.7c0-0.4-0.3-0.7-0.5-0.7c-0.1,0-0.2,0.1-0.3,0.2V13.3z
		 M23.6,12.4c0.1-0.1,0.3-0.2,0.5-0.2c0.4,0,0.6,0.3,0.6,0.7c0,0.4-0.3,0.9-0.8,0.9c-0.3,0-0.4-0.1-0.5-0.1l-0.1,0.1l-0.1,0
		c0-0.2,0-0.4,0-0.6v-1.5c0-0.2-0.1-0.2-0.2-0.3v-0.1c0.1,0,0.3-0.1,0.4-0.1c0,0,0.1,0,0.1,0c0,0,0,0,0,0V12.4z"/>
	<path class="st2" d="M24.7,12L24.7,12C24.8,12,24.8,11.9,24.7,12c0.1-0.1,0-0.1,0-0.1h0V12z M24.7,12.1L24.7,12.1
		C24.7,12.1,24.7,12.1,24.7,12.1l0-0.2c0,0,0,0,0,0v0h0.1c0,0,0.1,0,0.1,0.1c0,0,0,0.1-0.1,0.1l0,0.1c0,0,0,0,0,0.1v0h0
		c0,0,0,0-0.1-0.1h0L24.7,12.1c0.1,0,0.1,0,0.1,0v0H24.7z M24.8,12.1c0.1,0,0.2-0.1,0.2-0.2c0-0.1-0.1-0.2-0.2-0.2
		c-0.1,0-0.2,0.1-0.2,0.2C24.6,12.1,24.7,12.1,24.8,12.1 M24.8,11.7c0.1,0,0.2,0.1,0.2,0.2c0,0.1-0.1,0.2-0.2,0.2
		c-0.1,0-0.2-0.1-0.2-0.2C24.6,11.8,24.7,11.7,24.8,11.7"/>
</g>
</svg>
