<?xml version="1.0" encoding="utf-8"?>
<!-- Generator: Adobe Illustrator 24.0.3, SVG Export Plug-In . SVG Version: 6.00 Build 0)  -->
<svg version="1.1" id="Calque_1" xmlns="http://www.w3.org/2000/svg" xmlns:xlink="http://www.w3.org/1999/xlink" x="0px" y="0px"
	 viewBox="0 0 25 25" style="enable-background:new 0 0 25 25;" xml:space="preserve">
<style type="text/css">
	.st0{fill:#F1F2F2;}
	.st1{fill:#F58220;}
	.st2{fill:url(#SVGID_1_);}
	.st3{fill:#001722;}
	.st4{fill:#231F20;}
</style>
<g>
	<path class="st0" d="M2,11.3H1.8v2.4H2c0.5,0,0.7-0.1,1-0.3c0.2-0.2,0.4-0.6,0.4-0.9c0-0.3-0.1-0.7-0.4-0.9
		C2.7,11.4,2.4,11.3,2,11.3z"/>
	<path class="st0" d="M23.6,10.9L23.6,10.9L23.6,10.9C23.7,11,23.7,11,23.6,10.9C23.7,10.9,23.7,10.9,23.6,10.9L23.6,10.9z"/>
	<path class="st0" d="M21.9,11.3h-0.2v1.1h0.2c0.4,0,0.7-0.2,0.7-0.6C22.5,11.4,22.3,11.3,21.9,11.3z"/>
	<path class="st0" d="M25,0H0v25h3.9c9.2-1.9,16.3-4.7,21.1-7V0z M3.4,13.9c-0.3,0.3-0.7,0.4-1.3,0.4h-1v-3.6h1
		c1.1,0,1.9,0.7,1.9,1.8C4,13,3.8,13.5,3.4,13.9z M5.1,14.3H4.4v-3.6h0.7V14.3z M6.6,14.4c-0.5,0-0.9-0.2-1.2-0.7l0.5-0.4
		c0.2,0.3,0.4,0.5,0.8,0.5c0.3,0,0.5-0.2,0.5-0.5c0-0.2-0.1-0.3-0.2-0.4c-0.1,0-0.2-0.1-0.5-0.2c-0.7-0.2-0.9-0.5-0.9-1
		c0-0.6,0.5-1,1.1-1c0.4,0,0.8,0.1,1.1,0.4l-0.4,0.5c-0.2-0.2-0.4-0.3-0.6-0.3c-0.3,0-0.5,0.2-0.5,0.4c0,0.2,0.1,0.3,0.5,0.5
		c0.8,0.3,1,0.5,1,1.1C7.8,13.9,7.3,14.4,6.6,14.4z M10.8,11.7c-0.3-0.3-0.5-0.4-0.9-0.4c-0.7,0-1.2,0.5-1.2,1.2
		c0,0.7,0.5,1.2,1.2,1.2c0.3,0,0.6-0.1,0.8-0.4v0.8c-0.3,0.2-0.6,0.2-0.9,0.2c-1.1,0-1.9-0.8-1.9-1.9c0-1,0.8-1.9,1.9-1.9
		c0.3,0,0.6,0.1,0.9,0.2V11.7z M13,14.4c-1.1,0-1.9-0.8-1.9-1.9c0-1,0.9-1.8,1.9-1.8c1.1,0,1.9,0.8,1.9,1.9
		C14.9,13.5,14,14.4,13,14.4z M16.6,14.4h-0.4l-1.5-3.7h0.8l1,2.4l1-2.4h0.8L16.6,14.4z M20.5,11.3h-1.3v0.8h1.2v0.6h-1.2v1h1.3v0.6
		h-2v-3.6h2V11.3z M22.7,14.3l-1-1.4h-0.1v1.4h-0.7v-3.6h1c0.8,0,1.3,0.4,1.3,1.1c0,0.5-0.3,0.9-0.8,1l1.1,1.5H22.7z M23.6,11.3
		c-0.2,0-0.3-0.1-0.3-0.3c0-0.2,0.1-0.3,0.3-0.3c0.1,0,0.3,0.1,0.3,0.3S23.8,11.3,23.6,11.3z"/>
	<path class="st0" d="M23.6,10.8c-0.1,0-0.2,0.1-0.2,0.2c0,0.1,0.1,0.2,0.2,0.2c0.1,0,0.2-0.1,0.2-0.2
		C23.9,10.9,23.8,10.8,23.6,10.8z M23.7,11.2l-0.1-0.1L23.7,11.2h-0.2v-0.3h0.1c0.1,0,0.1,0,0.1,0.1c0,0,0,0.1-0.1,0.1L23.7,11.2
		L23.7,11.2z"/>
	<path class="st1" d="M3.9,25H25v-7C20.2,20.3,13.1,23.1,3.9,25z"/>
	<path class="st0" d="M13,10.6c-1.1,0-1.9,0.8-1.9,1.8c0,1.1,0.8,1.9,1.9,1.9c1.1,0,1.9-0.8,1.9-1.9C14.9,11.5,14,10.6,13,10.6z"/>
	
		<radialGradient id="SVGID_1_" cx="6.5491" cy="-473.5815" r="1.8882" gradientTransform="matrix(1 0 0 1 6.416 486.083)" gradientUnits="userSpaceOnUse">
		<stop  offset="5.618000e-03" style="stop-color:#FFEEE0"/>
		<stop  offset="0.1096" style="stop-color:#FEE9D7"/>
		<stop  offset="0.2793" style="stop-color:#FDDBBF"/>
		<stop  offset="0.4935" style="stop-color:#FBC597"/>
		<stop  offset="0.744" style="stop-color:#F8A560"/>
		<stop  offset="1" style="stop-color:#F48120"/>
	</radialGradient>
	<path class="st2" d="M13,10.6c-1.1,0-1.9,0.8-1.9,1.8c0,1.1,0.8,1.9,1.9,1.9c1.1,0,1.9-0.8,1.9-1.9C14.9,11.5,14,10.6,13,10.6z"/>
	<path class="st3" d="M2.1,10.7h-1v3.6h1c0.5,0,0.9-0.1,1.3-0.4C3.8,13.5,4,13,4,12.5C4,11.4,3.2,10.7,2.1,10.7z M2.9,13.4
		c-0.2,0.2-0.5,0.3-1,0.3H1.8v-2.4H2c0.5,0,0.7,0.1,1,0.3c0.2,0.2,0.4,0.5,0.4,0.9C3.3,12.8,3.2,13.2,2.9,13.4z"/>
	<rect x="4.4" y="10.7" class="st3" width="0.7" height="3.6"/>
	<path class="st3" d="M6.8,12.1c-0.4-0.2-0.5-0.3-0.5-0.5c0-0.2,0.2-0.4,0.5-0.4c0.2,0,0.4,0.1,0.6,0.3L7.7,11
		c-0.3-0.3-0.7-0.4-1.1-0.4c-0.6,0-1.1,0.4-1.1,1c0,0.5,0.2,0.7,0.9,1c0.3,0.1,0.4,0.2,0.5,0.2c0.1,0.1,0.2,0.2,0.2,0.4
		c0,0.3-0.2,0.5-0.5,0.5c-0.3,0-0.6-0.2-0.8-0.5l-0.5,0.4c0.3,0.5,0.7,0.7,1.2,0.7c0.7,0,1.2-0.5,1.2-1.2
		C7.8,12.6,7.6,12.4,6.8,12.1z"/>
	<path class="st3" d="M8,12.5c0,1.1,0.8,1.9,1.9,1.9c0.3,0,0.6-0.1,0.9-0.2v-0.8c-0.3,0.3-0.5,0.4-0.8,0.4c-0.7,0-1.2-0.5-1.2-1.2
		c0-0.7,0.5-1.2,1.2-1.2c0.3,0,0.6,0.1,0.9,0.4v-0.8c-0.3-0.2-0.6-0.2-0.9-0.2C8.9,10.6,8,11.5,8,12.5z"/>
	<polygon class="st3" points="16.5,13.1 15.5,10.7 14.7,10.7 16.3,14.4 16.6,14.4 18.2,10.7 17.4,10.7 	"/>
	<polygon class="st3" points="18.5,14.3 20.5,14.3 20.5,13.7 19.2,13.7 19.2,12.7 20.4,12.7 20.4,12.1 19.2,12.1 19.2,11.3 
		20.5,11.3 20.5,10.7 18.5,10.7 	"/>
	<path class="st3" d="M23.3,11.8c0-0.7-0.5-1.1-1.3-1.1h-1v3.6h0.7v-1.4h0.1l1,1.4h0.9l-1.1-1.5C23,12.7,23.3,12.3,23.3,11.8z
		 M21.9,12.4h-0.2v-1.1h0.2c0.4,0,0.7,0.2,0.7,0.5C22.5,12.2,22.3,12.4,21.9,12.4z"/>
	<path class="st4" d="M23.7,11c0-0.1,0-0.1-0.1-0.1h-0.1v0.3h0.1v-0.1l0.1,0.1h0.1L23.7,11C23.7,11,23.7,11,23.7,11z M23.6,11
		L23.6,11L23.6,11L23.6,11C23.7,10.9,23.7,10.9,23.6,11C23.7,11,23.7,11,23.6,11z"/>
	<path class="st4" d="M23.6,10.8c-0.2,0-0.3,0.1-0.3,0.3c0,0.2,0.1,0.3,0.3,0.3c0.1,0,0.3-0.1,0.3-0.3S23.8,10.8,23.6,10.8z
		 M23.6,11.3c-0.1,0-0.2-0.1-0.2-0.2c0-0.1,0.1-0.2,0.2-0.2c0.1,0,0.2,0.1,0.2,0.2C23.9,11.2,23.8,11.3,23.6,11.3z"/>
</g>
</svg>
