<?xml version="1.0" encoding="utf-8"?>
<!-- Generator: Adobe Illustrator 24.1.0, SVG Export Plug-In . SVG Version: 6.00 Build 0)  -->
<svg version="1.1" id="Calque_1" xmlns="http://www.w3.org/2000/svg" xmlns:xlink="http://www.w3.org/1999/xlink" x="0px" y="0px"
	 viewBox="0 0 25 25" style="enable-background:new 0 0 25 25;" xml:space="preserve">
<style type="text/css">
	.st0{filter:url(#Adobe_OpacityMaskFilter);}
	.st1{fill-rule:evenodd;clip-rule:evenodd;fill:#FFFFFF;}
	.st2{mask:url(#mask-2_2_);}
	.st3{fill:none;}
	.st4{fill:#E0E0E0;}
	.st5{fill:#0C9266;}
</style>
<g>
	<defs>
		<filter id="Adobe_OpacityMaskFilter" filterUnits="userSpaceOnUse">
			<feColorMatrix  type="matrix" values="1 0 0 0 0  0 1 0 0 0  0 0 1 0 0  0 0 0 1 0"/>
		</filter>
	</defs>
	<mask maskUnits="userSpaceOnUse" id="mask-2_2_">
		<rect x="36.2" y="-10.8" class="st0" width="27" height="24.2"/>
		<g>
			<path id="path-1_2_" class="st1" d="M36.2-10.8v24.2h27v-24.2H36.2z"/>
		</g>
	</mask>
	<g class="st2">
	</g>
</g>
<g>
	<path class="st3" d="M17,20.5C16.9,20.5,16.9,20.5,17,20.5c-0.1,1.1-0.1,2.1-0.2,3.2h1c0,0,0-0.1,0-0.1
		C17.5,22.5,17.2,21.5,17,20.5z"/>
	<path class="st3" d="M0,1.3v22.4h9.9c0-0.2,0-0.4,0-0.6c0-1.5-0.1-3.1-0.1-4.6c0-0.6-0.2-0.9-0.8-1c-1.2-0.3-2.3-0.8-3.2-1.7
		c-0.6-0.6-1-1.2-1.2-2.1C4.3,11.8,4,9.9,3.7,8c0-0.3-0.1-0.6-0.1-0.9c0-0.8,0.6-1.5,1.4-1.5c0.8-0.1,1.5,0.5,1.7,1.3
		C6.8,8,7,9.1,7.1,10.1c0.1,0.8,0.3,1.6,0.4,2.4c0.1,0.9,0.7,1.2,1.4,1.5c0.8,0.3,1.6,0.4,2.5,0.4c1.2,0,2.4,0,3.6,0
		c1.7-0.1,2.9,0.8,3.7,2.2c1,1.8,1.6,3.7,2,5.7c0.1,0.4,0.2,0.9,0.2,1.3h4V1.3H0z M13.2,13.5c-2,0-3.6-1.7-3.6-3.7
		c0-2.1,1.6-3.7,3.6-3.7c2,0,3.6,1.6,3.6,3.7C16.8,11.8,15.2,13.5,13.2,13.5z"/>
	<path class="st4" d="M18.7,16.7c-0.8-1.5-2-2.3-3.7-2.2c-1.2,0-2.4,0-3.6,0c-0.8,0-1.7-0.1-2.5-0.4c-0.7-0.3-1.2-0.7-1.4-1.5
		c-0.1-0.8-0.3-1.6-0.4-2.4C7,9.1,6.8,8,6.7,6.9C6.6,6.1,5.8,5.6,5,5.6C4.3,5.7,3.7,6.3,3.7,7.2c0,0.3,0,0.6,0.1,0.9
		c0.3,1.9,0.6,3.8,1,5.6c0.1,0.8,0.6,1.5,1.2,2.1c0.9,0.9,2,1.4,3.2,1.7c0.6,0.1,0.8,0.4,0.8,1c0,1.5,0.1,3.1,0.1,4.6
		c0,0.2,0,0.4,0,0.6h6.9c0-1.1,0-2.1,0.1-3.2c0,0,0.1,0,0.1,0c0.3,1,0.5,2,0.8,3.1c0,0,0,0.1,0,0.1H21c-0.1-0.4-0.2-0.9-0.2-1.3
		C20.3,20.4,19.7,18.5,18.7,16.7z"/>
	<path class="st5" d="M13.2,6c-2,0-3.6,1.7-3.6,3.7c0,2.1,1.6,3.7,3.6,3.7c2,0,3.6-1.7,3.6-3.8C16.8,7.7,15.2,6,13.2,6z"/>
</g>
</svg>
