<?xml version="1.0" encoding="utf-8"?>
<!-- Generator: Adobe Illustrator 24.0.3, SVG Export Plug-In . SVG Version: 6.00 Build 0)  -->
<svg version="1.1" id="Calque_1" xmlns="http://www.w3.org/2000/svg" xmlns:xlink="http://www.w3.org/1999/xlink" x="0px" y="0px"
	 viewBox="0 0 154.9 60" style="enable-background:new 0 0 154.9 60;" xml:space="preserve">
<style type="text/css">
	.st0{fill:#FFEF5F;}
</style>
<path class="st0" d="M154.9,3.4c-2.8,4.6-5.8,12.7-12,17c-0.1-0.9-0.2-1.5-0.2-1.5S139-0.6,133,0c-4.7,0.5-6.9,14.2-15.7,20.4
	c-0.1-0.9-0.2-1.5-0.2-1.5S113.3-0.6,107.2,0c-4.7,0.5-6.9,14.2-15.7,20.4c-0.1-0.9-0.2-1.5-0.2-1.5S87.6-0.6,81.6,0
	c-4.7,0.5-6.9,14.2-15.7,20.4c-0.1-0.9-0.2-1.5-0.2-1.5S61.9-0.6,55.9,0C52,0.4,49.8,10.2,44,16.9C43.7,12,42.8-0.5,37.9,0
	c-3.8,0.4-7.5,9.5-14,16.2C19.4,9.5,10.6-2.3,3.3,0.4c-8.7,3.3,2.5,29.8,2.5,29.8s-8.9,29.3,0.4,29.1c5.6-0.1,7.4-7.8,11.2-14.4
	c3.9,6.4,9.6,14.8,15.8,11.4c4.3-2.3,6.8-5.9,8.1-8.7c5.1,7.1,12.4,15.2,17.3,11.3c3.6-2.8,5.6-7.9,6.7-13.5
	c4.3,6.2,10.9,14.6,16.2,14.5h0c1,0,1.9-0.3,2.8-1c3.6-2.8,5.6-7.9,6.7-13.5c4.3,6.2,10.9,14.6,16.2,14.5h0c1,0,1.9-0.3,2.8-1
	c3.6-2.8,5.6-7.9,6.7-13.5c4.3,6.2,10.9,14.6,16.2,14.5h0c1,0,1.9-0.3,2.8-1c3.6-2.8,5.6-7.9,6.7-13.5c3.2,4.7,7.9,10.7,12.2,13.3
	V3.4z"/>
</svg>
