<?xml version="1.0" encoding="utf-8"?>
<!-- Generator: Adobe Illustrator 24.0.2, SVG Export Plug-In . SVG Version: 6.00 Build 0)  -->
<svg version="1.1" id="Calque_1" xmlns="http://www.w3.org/2000/svg" xmlns:xlink="http://www.w3.org/1999/xlink" x="0px" y="0px"
	 viewBox="0 0 123.1 225.1" style="enable-background:new 0 0 123.1 225.1;" xml:space="preserve">
<style type="text/css">
	.st0{fill:#F41F22;}
</style>
<g>
	<path class="st0" d="M111.4,10.6L111.4,10.6c-1.3,1.9-2.5,4-3.3,6.1c-1.9,4.8-2,9.8-0.8,13.6c1,3.1,2.5,5.6,4.4,7.8
		c-0.8-0.3-1.7-0.5-2.5-0.7c-3.6-0.8-7.9-0.7-12.4,1.1s-8.7,5.4-11.6,9.6c-1.3,1.9-2.5,3.9-3.3,6c-1.9,4.8-2,9.7-0.8,13.5
		c1,3.1,2.5,5.6,4.4,7.8c-0.8-0.3-1.7-0.5-2.5-0.7c-3.6-0.8-7.9-0.8-12.4,1c-4.5,1.7-8.8,5.2-11.7,9.3l0,0c-1.3,1.9-2.5,3.9-3.3,5.9
		c-1.9,4.7-2,9.6-0.8,13.4c1,3.1,2.5,5.6,4.5,7.8c-0.8-0.3-1.7-0.5-2.6-0.7c-3.7-0.8-8-0.9-12.5,0.8c-4.6,1.6-8.8,5.1-11.7,9.1l0,0
		c-1.4,1.8-2.5,3.8-3.3,5.9c-1.9,4.6-2,9.5-0.8,13.3c1.8,5.8,5.8,9.8,10.5,12.9c4.7,3.1,10.4,5.4,16.5,6.9c4.6,1.1,9.5,1.7,14.6,1.7
		c0.1,2.7-0.3,5-1,6.7c-0.3,0.8-0.7,1.5-1.1,2.1c-1.3,1.7-2.8,3-4.7,4.2c-1,0.6-2.2,1.2-3.6,1.7c-3.1-5.8-7.2-11.2-11.9-15.8
		c-2.8-2.8-5.8-5.3-9-7.3s-6.5-3.6-10.2-4.5c-3.3-0.8-7-1-11.2,0.1c-2.1,0.6-4.2,1.6-6.2,3c-2,1.3-3.7,3-5,4.9
		c-1.4,1.8-2.5,3.8-3.4,5.8c-1.9,4.6-2,9.4-0.8,13.2c1.9,5.8,5.8,9.8,10.5,13s10.4,5.5,16.6,7.1c5.2,1.3,10.8,2,16.6,1.8
		c0.3,2.2,0,3.7-0.2,4.3l-0.4,0.6c-0.2,0.2-0.6,0.6-2.1,1.2s-4,1.2-7.5,1.4l-2,19c6.9-0.4,12.9-1.8,18.3-4.8
		c2.7-1.5,5.1-3.5,7.2-5.7c2-2.3,3.6-4.9,4.6-7.4c1.4-3.5,1.9-6.8,1.9-10c0-0.8,0-1.6-0.1-2.4c2-0.8,3.9-1.8,5.8-2.9
		c4.5-2.6,8.7-6.3,12-10.8l0,0c0,0,0-0.1,0.1-0.1c0,0,0,0,0.1-0.1l0,0c1.7-2.3,3-4.8,3.9-7.2c1.9-4.8,2.5-9.6,2.5-14.2
		c2.6-1,5.2-2.2,7.7-3.7c4.5-2.7,8.7-6.4,12-11l0,0l0,0l0.1-0.1l0,0c1.7-2.4,3-4.8,3.9-7.3c1.9-4.9,2.5-9.7,2.5-14.4
		c2.5-1,5-2.2,7.4-3.7V0.7h-0.1C118.5,2.6,114.3,6.3,111.4,10.6z M49.3,134.8c-1.3-1.2-1.9-2.3-2.1-2.9c-0.1-0.6-0.1-0.5,0-0.7
		l0.4-0.6l0,0l0.4-0.4c0.2,0,0.6,0,1.3,0.1c1.8,0.4,4.9,2,7.8,4.8c1.8,1.7,3.6,3.7,5.2,6C56.6,139.7,51.8,137.2,49.3,134.8z
		 M22.9,170.5c-1.3-1.2-1.9-2.4-2.1-2.9c0-0.1,0-0.2-0.1-0.3c0.1,0,0.1,0,0.2,0c2,0.4,5.4,2.2,8.7,5c1.4,1.2,2.9,2.5,4.3,4
		C29.1,174.9,25.1,172.7,22.9,170.5z M73.5,94.9l0.4-0.7v-0.1l0.4-0.4c0.2,0,0.6,0,1.3,0.1c1.8,0.3,4.8,2,7.8,4.7
		c1.8,1.7,3.6,3.7,5.2,6c-5.6-1.3-10.5-3.8-12.9-6.2c-1.3-1.2-1.9-2.3-2.1-2.9C73.4,94.9,73.5,95.1,73.5,94.9z M95.3,132.2
		c-0.3,0.8-0.7,1.5-1.2,2.2c-1.2,1.7-2.7,3-4.7,4.2c-1.1,0.7-2.4,1.3-3.8,1.8c-2.1-5.1-4.8-9.8-8-14c-1.4-1.9-2.9-3.6-4.5-5.2
		c2.7,1.1,5.6,2,8.7,2.7c4.6,1,9.5,1.6,14.5,1.5C96.4,128.2,96,130.5,95.3,132.2z M99.7,57.8l0.4-0.7l0,0l0.4-0.5
		c0.2,0,0.6,0,1.3,0.1c1.8,0.3,4.8,1.9,7.7,4.7c1.8,1.7,3.6,3.7,5.2,6c-5.6-1.3-10.4-3.7-12.8-6.1c-1.3-1.2-1.9-2.3-2-2.9
		C99.6,57.9,99.7,58,99.7,57.8z M121.4,95.3c-0.3,0.8-0.7,1.5-1.1,2.2c-1.2,1.7-2.7,3.1-4.7,4.4c-1.1,0.7-2.4,1.3-3.8,1.9
		c-2.1-5.1-4.8-9.8-8-14c-1.4-1.9-2.9-3.6-4.5-5.2c2.7,1.1,5.6,1.9,8.6,2.6c4.6,1,9.5,1.5,14.5,1.4
		C122.5,91.2,122.1,93.6,121.4,95.3z"/>
</g>
</svg>
