<?xml version="1.0" encoding="utf-8"?>
<!-- Generator: Adobe Illustrator 24.1.0, SVG Export Plug-In . SVG Version: 6.00 Build 0)  -->
<svg version="1.1" id="Calque_1" xmlns="http://www.w3.org/2000/svg" xmlns:xlink="http://www.w3.org/1999/xlink" x="0px" y="0px"
	 viewBox="0 0 97.3 97" style="enable-background:new 0 0 97.3 97;" xml:space="preserve">
<style type="text/css">
	.st0{fill:none;}
	.st1{fill:#FFEF5F;}
</style>
<g>
	<path class="st0" d="M18,25.1v-1.5c0-11.1,12-14.3,19.1-9.8c2.1-9.7,14.5-11.5,20.6-5.6c3.1-10.7,19.5-11,23-0.7
		C85.3,3.8,92.9,4,97.3,8.1V0h-97v52.7C0.4,43.5,5,36.2,11,28.9C12.9,26.7,15.4,25.5,18,25.1z"/>
	<path class="st0" d="M78.8,91.8c-4.9,7.2-17.3,6.8-21.1-1.2c-4.6,7.5-17.5,7-21.4-1.4c-6.2,3.3-15.6,1.1-17.7-6.7
		c-0.6-0.2-1.1-0.5-1.6-0.9C8.5,75.4,2,67.7,0.6,57c-0.2-1.4-0.3-2.7-0.3-4V97h97v-4.9C92.4,97.2,83.2,97.1,78.8,91.8z"/>
	<path class="st1" d="M16.9,81.5c0.5,0.4,1.1,0.7,1.6,0.9c2.2,7.8,11.5,10.1,17.7,6.7c3.9,8.4,16.8,8.9,21.4,1.4
		c3.8,8,16.2,8.5,21.1,1.2c4.4,5.3,13.6,5.3,18.5,0.3v-84C92.9,4,85.3,3.8,80.7,7.6c-3.5-10.3-19.9-10.1-23,0.7
		c-6.1-6-18.5-4.1-20.6,5.6C30,9.3,18,12.5,18,23.6v1.5c-2.7,0.4-5.2,1.6-7,3.8C5,36.2,0.4,43.5,0.3,52.7V53c0,1.3,0.1,2.6,0.3,4
		C2,67.7,8.5,75.4,16.9,81.5z"/>
</g>
</svg>
