<?xml version="1.0" encoding="utf-8"?>
<!-- Generator: Adobe Illustrator 24.0.2, SVG Export Plug-In . SVG Version: 6.00 Build 0)  -->
<svg version="1.1" id="Calque_1" xmlns="http://www.w3.org/2000/svg" xmlns:xlink="http://www.w3.org/1999/xlink" x="0px" y="0px"
	 viewBox="0 0 25 25" style="enable-background:new 0 0 25 25;" xml:space="preserve">
<style type="text/css">
	.st0{fill-rule:evenodd;clip-rule:evenodd;fill:#0C9266;fill-opacity:0;}
	.st1{fill:#0C9266;}
</style>
<g>
	
		<g transform="translate(10.153661813515601, 10.153661813515889) rotate(315.0001126327126) translate(-10.153661813515601, -10.153661813515889)">
		<g>
			<path class="st0" d="M10.2-1.4v29.7"/>
			<path class="st1" d="M8.7,29.7c-0.4-0.4-0.6-0.9-0.6-1.4l0-29.7c0-1.1,0.9-2,2-2s2,0.9,2,2v29.7c0,1.1-0.9,2-2,2
				C9.6,30.3,9.1,30.1,8.7,29.7z"/>
		</g>
	</g>
	
		<g transform="translate(10.206717834288154, 10.153661813515889) rotate(45.00001609038752) translate(-10.206717834288154, -10.153661813515889)">
		<g>
			<path class="st0" d="M13.5-4.7l0,29.7"/>
			<path class="st1" d="M14.9,26.5C14.5,26.8,14,27,13.5,27c-1.1,0-2-0.9-2-2l0-29.7c0-1.1,0.9-2,2-2c1.1,0,2,0.9,2,2l0,29.7
				C15.5,25.6,15.3,26.1,14.9,26.5z"/>
		</g>
	</g>
</g>
</svg>
