<?xml version="1.0" encoding="utf-8"?>
<!-- Generator: Adobe Illustrator 24.0.3, SVG Export Plug-In . SVG Version: 6.00 Build 0)  -->
<svg version="1.1" id="Calque_1" xmlns="http://www.w3.org/2000/svg" xmlns:xlink="http://www.w3.org/1999/xlink" x="0px" y="0px"
	 viewBox="0 0 25 25" style="enable-background:new 0 0 25 25;" xml:space="preserve">
<style type="text/css">
	.st0{fill:url(#SVGID_1_);}
	.st1{fill:url(#SVGID_2_);}
	.st2{fill:url(#SVGID_3_);}
	.st3{fill:url(#SVGID_4_);}
	.st4{fill:url(#SVGID_5_);}
</style>
<g>
	
		<linearGradient id="SVGID_1_" gradientUnits="userSpaceOnUse" x1="-482.4888" y1="-469.4604" x2="-482.1711" y2="-469.4604" gradientTransform="matrix(24.2543 0 0 15.022 11719.7109 7065.9604)">
		<stop  offset="0" style="stop-color:#007940"/>
		<stop  offset="0.2285" style="stop-color:#00873F"/>
		<stop  offset="0.7433" style="stop-color:#40A737"/>
		<stop  offset="1" style="stop-color:#5CB531"/>
	</linearGradient>
	<path class="st0" d="M18.8,14.5h1.8c0,0,0.1,0,0.2,0c0.4-0.1,0.6-0.4,0.6-0.8s-0.2-0.7-0.6-0.8c0,0-0.1,0-0.2,0h-1.8V14.5z"/>
	
		<linearGradient id="SVGID_2_" gradientUnits="userSpaceOnUse" x1="-491.1354" y1="-494.065" x2="-491.0257" y2="-494.065" gradientTransform="matrix(70.2592 0 0 170.7188 34524.0508 84358.5625)">
		<stop  offset="0" style="stop-color:#007940"/>
		<stop  offset="0.2285" style="stop-color:#00873F"/>
		<stop  offset="0.7433" style="stop-color:#40A737"/>
		<stop  offset="1" style="stop-color:#5CB531"/>
	</linearGradient>
	<path class="st1" d="M20.4,3.1c-1.8,0-3.2,1.4-3.2,3.2v3.3h4.4c0.1,0,0.2,0,0.4,0c1.1,0,1.8,0.6,1.8,1.4c0,0.7-0.5,1.3-1.4,1.4l0,0
		c1.1,0.1,1.8,0.6,1.8,1.5c0,0.9-0.8,1.5-2,1.5h-4.8v6.3h4.4c1.8,0,3.2-1.4,3.2-3.2V3.1H20.4L20.4,3.1z"/>
	
		<linearGradient id="SVGID_3_" gradientUnits="userSpaceOnUse" x1="-481.2517" y1="-465.5241" x2="-480.9049" y2="-465.5241" gradientTransform="matrix(22.22 0 0 13.7702 10710.7275 6421.5752)">
		<stop  offset="0" style="stop-color:#007940"/>
		<stop  offset="0.2285" style="stop-color:#00873F"/>
		<stop  offset="0.7433" style="stop-color:#40A737"/>
		<stop  offset="1" style="stop-color:#5CB531"/>
	</linearGradient>
	<path class="st2" d="M21.3,11.2c0-0.5-0.2-0.7-0.6-0.7h-0.1h-1.6V12h1.6h0.1C20.9,11.9,21.3,11.6,21.3,11.2L21.3,11.2z"/>
	
		<linearGradient id="SVGID_4_" gradientUnits="userSpaceOnUse" x1="-489.1404" y1="-494.0616" x2="-489.0289" y2="-494.0616" gradientTransform="matrix(70.2592 0 0 170.5623 34366.6328 84280.7891)">
		<stop  offset="0" style="stop-color:#1F286F"/>
		<stop  offset="0.4751" style="stop-color:#004E94"/>
		<stop  offset="0.8261" style="stop-color:#0066B1"/>
		<stop  offset="1" style="stop-color:#006FBC"/>
	</linearGradient>
	<path class="st3" d="M3.2,3.1C1.4,3.1,0,4.5,0,6.3V14c0.8,0.5,1.8,0.7,2.7,0.7c1.1,0,1.6-0.7,1.6-1.5V9.5H7v3.6
		c0.1,1.4-0.8,2.6-3.7,2.6c-1.8,0-3.2-0.4-3.2-0.4v6.5h4.6c1.8,0,3.2-1.4,3.2-3.2V3.1H3.2L3.2,3.1z"/>
	
		<linearGradient id="SVGID_5_" gradientUnits="userSpaceOnUse" x1="-490.1407" y1="-494.0676" x2="-490.0325" y2="-494.0676" gradientTransform="matrix(70.2592 0 0 170.8753 34445.4961 84436.3281)">
		<stop  offset="0" style="stop-color:#6C2C2F"/>
		<stop  offset="0.1735" style="stop-color:#882730"/>
		<stop  offset="0.5731" style="stop-color:#BE1833"/>
		<stop  offset="0.8585" style="stop-color:#DC0436"/>
		<stop  offset="1" style="stop-color:#E60039"/>
	</linearGradient>
	<path class="st4" d="M11.8,3.1c-1.8,0-3.2,1.4-3.2,3.2v4.1c0.8-0.7,2.1-1.1,4.3-1.1c1.2,0,2.5,0.4,2.5,0.4V11
		c-0.6-0.4-1.4-0.6-2.3-0.7c-1.6-0.1-2.7,0.7-2.7,2.1s1.1,2.3,2.7,2.1c0.9-0.1,1.8-0.4,2.3-0.7v1.3c0,0-1.3,0.4-2.5,0.4
		c-2.2,0.1-3.6-0.4-4.3-1.1v7.2h4.6c1.8,0,3.2-1.4,3.2-3.2V3.1H11.8L11.8,3.1z"/>
</g>
</svg>
