<svg width="12" height="15" viewBox="0 0 12 15" fill="none" xmlns="http://www.w3.org/2000/svg">
<g clip-path="url(#clip0)">
<path d="M9.24231 6.03884C9.24231 5.96628 9.24231 5.91187 9.24231 5.85746C9.24231 5.11381 9.25429 4.36411 9.24231 3.62046C9.23632 2.89494 9.07459 2.2057 8.66129 1.60716C7.84668 0.416104 6.72059 -0.134077 5.28304 0.0231172C4.16893 0.144036 3.31838 0.712355 2.71939 1.65552C2.366 2.2178 2.1863 2.84658 2.18031 3.51768C2.17432 4.29156 2.18031 5.07148 2.18031 5.84537C2.18031 5.89978 2.18031 5.95419 2.18031 6.02674C2.12041 6.03279 2.0665 6.03279 2.0126 6.03884C1.75503 6.03884 1.49148 6.03884 1.23392 6.03884C0.473213 6.04488 0.00600719 6.51647 0.00600719 7.2843C1.71661e-05 7.93122 0.00600719 8.58418 0.00600719 9.2311C0.00600719 10.7305 0.00600719 12.2359 0.00600719 13.7353C0.00600719 14.1465 0.125803 14.4971 0.455243 14.7571C0.664886 14.9264 0.916459 14.9989 1.18001 14.9989C4.20487 14.9989 7.22973 14.9989 10.2546 14.9989C10.9434 14.9989 11.4286 14.4911 11.4286 13.7716C11.4286 11.6011 11.4286 9.43061 11.4226 7.26012C11.4226 7.07269 11.3747 6.86713 11.2968 6.6918C11.0872 6.22021 10.6859 6.03884 10.1947 6.03884C9.88322 6.03279 9.57175 6.03884 9.24231 6.03884ZM3.64782 6.02674C3.64183 5.99047 3.63584 5.96024 3.63584 5.93605C3.63584 5.11985 3.62386 4.30365 3.64183 3.48745C3.6598 2.76798 3.98924 2.19966 4.57624 1.80667C5.13928 1.43182 5.75024 1.36532 6.39714 1.57693C7.14587 1.82481 7.75683 2.61078 7.7748 3.39676C7.78678 4.23714 7.78079 5.07753 7.78678 5.92396C7.78678 5.96024 7.78079 5.99047 7.7748 6.03279C6.39714 6.02674 5.02547 6.02674 3.64782 6.02674ZM5.70831 9.24923C6.1276 9.24923 6.49897 9.52735 6.61278 9.92638C6.73257 10.3496 6.58283 10.7849 6.21745 11.0026C6.13958 11.0509 6.12161 11.1053 6.1276 11.1839C6.1276 11.5406 6.13359 11.8974 6.1276 12.2541C6.1276 12.4415 6.02577 12.5806 5.85207 12.6471C5.68435 12.7136 5.52263 12.6712 5.4208 12.5322C5.34892 12.4354 5.307 12.2964 5.30101 12.1755C5.28304 11.8429 5.29502 11.5104 5.29502 11.1779C5.29502 11.0932 5.27705 11.0449 5.19918 10.9965C4.82781 10.7547 4.68405 10.3315 4.81583 9.9022C4.92964 9.5213 5.30101 9.24923 5.70831 9.24923Z" fill="#FFEF5F"/>
</g>
<defs>
<clipPath id="clip0">
<rect width="11.4286" height="15" fill="white" transform="matrix(-1 0 0 1 11.4286 0)"/>
</clipPath>
</defs>
</svg>
