<svg xmlns="http://www.w3.org/2000/svg" xmlns:xlink="http://www.w3.org/1999/xlink" height="11.071171393341501" width="14.33155454862299">
  <g opacity="1">
    <path fill="rgb(244,31,34)" fill-opacity="1" opacity="1" fill-rule="evenodd" d="M11.524747298709254 6.38244143033279L11.331850819099635 6.38244143033279C7.905486232135591 6.38244143033279 4.47912164517155 6.38244143033279 1.052757058207508 6.384118372379645C0.7192750087129163 6.384118372379645 0.4528163123030217 6.271763255240313 0.27953642384014543 5.966559802712576C-9.094947017729282e-13 5.470184956843289 0.33511676542257735 4.819531442663278 0.8925548971757922 4.7776078914918845C0.9546741024738045 4.772577065351317 1.0167933077718165 4.774254007398174 1.078912513069829 4.774254007398174L11.542729173927098 4.774254007398174C11.493687696060247 4.720591861898791 11.464262809340136 4.683699136867967 11.429933774833339 4.650160295930853C10.418044614847297 3.612133168927175 9.406155454861256 2.575782983970353 8.394266294875216 1.5377558569666756C8.119634018820845 1.2560295930949184 8.062418961309518 0.9072256473489331 8.229159986056816 0.5684833538840819C8.444942488670963 0.13247842170160024 9.013823631926442 0 9.393077727430097 0.3001726263871701C9.447023353083633 0.34041923551170683 9.496064830950486 0.38737361282366634 9.541836876959545 0.4360049321824817L13.926144998256094 4.9335635018494655C13.99316835134079 5.002318125770549 14.056922272567697 5.077780517879056 14.105963750434547 5.159950678174986C14.331554548622066 5.540616522811229 14.289051934470796 5.859235511713812 13.971917044265155 6.1862392108506725C13.52400487974791 6.649075215782845 13.072823283372873 7.110234278668162 12.62327640292673 7.571393341553479C11.593405367722847 8.627866831072568 10.560264900661167 9.679309494451093 9.538567445101755 10.74081381011075C9.219797838967219 11.071171393341322 8.80948414081456 11.069494451294466 8.549564308120246 10.920246609124309C8.100017427674105 10.660320591861675 7.995395608224821 10.063329223181047 8.345224817008363 9.674278668310523C8.578989194840355 9.41435265104789 8.8291007319613 9.169519112206958 9.072673405366665 8.917977805178605L11.411951899615495 6.503181257706398C11.4430115022645 6.471319358816141 11.472436388984612 6.437780517879027 11.524747298709254 6.382441430332788L11.524747298709254 6.38244143033279Z"/>
  </g>
</svg>