<?xml version="1.0" encoding="utf-8"?>
<!-- Generator: Adobe Illustrator 24.0.3, SVG Export Plug-In . SVG Version: 6.00 Build 0)  -->
<svg version="1.1" id="Calque_1" xmlns="http://www.w3.org/2000/svg" xmlns:xlink="http://www.w3.org/1999/xlink" x="0px" y="0px"
	 viewBox="0 0 25 25" style="enable-background:new 0 0 25 25;" xml:space="preserve">
<style type="text/css">
	.st0{fill-rule:evenodd;clip-rule:evenodd;fill:#E0E0E0;}
	.st1{fill-rule:evenodd;clip-rule:evenodd;fill:#F41F22;}
</style>
<g>
	<g>
		<path class="st0" d="M0.3,5.7C1.5,6.9,2.7,8,3.9,9c2.4,2.2,4.8,4.3,7.2,6.5c0.9,0.8,2,0.8,2.9-0.1c2.4-2.2,4.9-4.4,7.3-6.7
			c1.1-1,2.1-1.9,3.2-2.9c0.1-0.1,0.1-0.1,0.2-0.2c0,0,0.1,0,0.1,0C24.9,6.1,25,6.5,25,6.8c0,3.8,0,7.5,0,11.3
			c0,1.5-1.1,2.5-2.6,2.5c-6.6,0-13.2,0-19.8,0c-1.5,0-2.6-1-2.6-2.5c0-3.8,0-7.5,0-11.3C0,6.5,0.1,6.1,0.3,5.7L0.3,5.7z"/>
	</g>
	<g>
		<path class="st1" d="M1.1,4.8c0.5-0.3,1-0.5,1.5-0.5c6.6,0,13.2,0,19.8,0c0.6,0,1.1,0.1,1.6,0.5c-0.5,0.4-1,0.9-1.4,1.3
			c-3.1,2.8-6.2,5.7-9.4,8.5c-0.4,0.4-0.9,0.4-1.3,0C8.3,11.4,4.7,8.1,1.1,4.8C1.1,4.9,1.1,4.8,1.1,4.8L1.1,4.8z"/>
	</g>
</g>
</svg>
