<svg width="16" height="15" viewBox="0 0 16 15" fill="none" xmlns="http://www.w3.org/2000/svg">
<g clip-path="url(#clip0)">
<path d="M4.85117 0C4.2845 0.523156 3.81227 1.10635 3.46884 1.7753C2.19812 4.25386 2.11226 6.72385 3.64914 9.12522C4.69662 10.7719 6.25925 11.7582 8.12239 12.2813C9.72796 12.7359 11.3164 12.6415 12.9047 12.187C13.875 11.9125 14.7851 11.5009 15.6351 10.9691C15.678 10.9434 15.7209 10.9177 15.7982 10.9177C15.6866 11.0892 15.5835 11.2607 15.4719 11.4237C14.227 13.2247 12.5441 14.4082 10.3891 14.8371C6.56835 15.5832 2.58449 13.825 0.824377 10.2916C-0.18876 8.26759 -0.248861 6.18354 0.549628 4.06518C1.20216 2.34992 2.36984 1.14065 4.00975 0.360206C4.25874 0.240137 4.50773 0.137221 4.75672 0.0343053C4.78248 0.0171527 4.81682 0.00857633 4.85117 0Z" fill="#FFEF5F"/>
</g>
<defs>
<clipPath id="clip0">
<rect width="15.7895" height="15" fill="white"/>
</clipPath>
</defs>
</svg>
