<?xml version="1.0" encoding="utf-8"?>
<!-- Generator: Adobe Illustrator 24.0.3, SVG Export Plug-In . SVG Version: 6.00 Build 0)  -->
<svg version="1.1" id="Calque_1" xmlns="http://www.w3.org/2000/svg" xmlns:xlink="http://www.w3.org/1999/xlink" x="0px" y="0px"
	 viewBox="0 0 25 25" style="enable-background:new 0 0 25 25;" xml:space="preserve">
<style type="text/css">
	.st0{fill-rule:evenodd;clip-rule:evenodd;fill:#0E9367;}
	.st1{fill-rule:evenodd;clip-rule:evenodd;fill:#E0E0E0;}
</style>
<g>
	<g>
		<path class="st0" d="M24,11.6c-2,4.7-6.5,7.8-11.6,7.8C6.6,19.3,2.5,15.4,1,11.6H24L24,11.6z"/>
	</g>
	<g>
		<path class="st1" d="M24.7,9.6H0.3C0.2,8.8,0.1,8.1,0,7.4C0,7.2,0,7,0,6.8c0-0.6,0.4-1,1-1.1c0.1,0,0.1,0,0.2,0
			c7.6,0,15.1,0,22.7,0c0.4,0,0.7,0.1,0.9,0.4C24.9,6.2,25,6.4,25,6.6C25,7.6,24.9,8.6,24.7,9.6L24.7,9.6z"/>
	</g>
</g>
</svg>
