<svg xmlns="http://www.w3.org/2000/svg" xmlns:xlink="http://www.w3.org/1999/xlink" height="3.6513278008296766" width="105.3046827794551">
  <g opacity="0.3">
    <path fill="rgb(34,34,34)" fill-opacity="1" opacity="1" fill-rule="evenodd" d="M92.03787009063423 2.072987551867311C98.92330815709948 2.072987551867311 99.86285498489406 3.564481327800987 105.30468277945593 3.6513278008300367L105.30468277945593 1.438630705394254C99.69826283987894 0.9628630705394614 99.01246223564932 0.06041493775933884 92.03101208459194 0.06041493775933884C84.2094561933533 0.06041493775933884 84.2094561933533 1.5934439834025598 76.38790030211463 1.5934439834025598C68.56634441087596 1.5934439834025598 68.56634441087596 0.06041493775933884 60.74821752265847 0.06041493775933884C52.92666163141982 0.06041493775933884 52.92666163141982 1.5934439834025598 45.10853474320231 1.5934439834025598C37.29040785498481 1.5934439834025598 37.29040785498481 0.06041493775933884 29.468851963746154 0.06041493775933884C21.650725075528644 0.06041493775933884 21.650725075528644 1.5934439834025598 13.829169184289993 1.5934439834025598C6.7139879154078335 1.5934439834025598 5.949320241691817 0 0 0.011327800829875759L0 2.1824896265561122C6.127628398791527 2.64315352697107 6.628262839879133 3.606016597510532 13.8360271903323 3.606016597510532C21.657583081570955 3.606016597510532 21.657583081570955 2.072987551867311 29.479138972809608 2.072987551867311C37.30069486404826 2.072987551867311 37.30069486404825 3.606016597510532 45.11882175226577 3.606016597510532C52.93694864048327 3.606016597510532 52.93694864048327 2.072987551867311 60.758504531721904 2.072987551867311C68.58006042296054 2.072987551867311 68.58006042296054 3.606016597510532 76.39818731117806 3.606016597510532C84.21631419939558 3.606016597510532 84.21631419939555 2.072987551867311 92.03787009063423 2.072987551867311L92.03787009063423 2.072987551867311Z"/>
  </g>
</svg>