<svg xmlns="http://www.w3.org/2000/svg" xmlns:xlink="http://www.w3.org/1999/xlink" height="3.6513278008296766" width="105.30468277945693">
  <g opacity="1">
    <path fill="rgb(34,34,34)" fill-opacity="1" opacity="1" fill-rule="evenodd" d="M92.03787009063446 2.0729875518673104C98.92330815709971 2.0729875518673104 99.86285498489427 3.5644813278009853 105.30468277945621 3.651327800830035L105.30468277945621 1.4386307053942535C99.69826283987916 0.962863070539461 99.01246223564956 0.06041493775933873 92.03101208459215 0.06041493775933873C84.20945619335349 0.06041493775933873 84.20945619335349 1.593443983402559 76.3879003021148 1.593443983402559C68.56634441087613 1.593443983402559 68.56634441087614 0.06041493775933873 60.748217522658614 0.06041493775933873C52.930090634441086 0.06041493775933873 52.92666163141995 1.593443983402559 45.108534743202426 1.593443983402559C37.290407854984906 1.593443983402559 37.2904078549849 0.06041493775933873 29.46885196374623 0.06041493775933873C21.650725075528705 0.06041493775933873 21.650725075528705 1.593443983402559 13.82916918429003 1.593443983402559C6.713987915407855 1.5934439834025595 5.949320241691845 0 0 0.011327800829876007L0 2.182489626556112C6.127628398791542 2.6431535269710698 6.628262839879154 3.6060165975105303 13.836027190332329 3.6060165975105303C21.657583081570998 3.6060165975105303 21.657583081570998 2.0729875518673104 29.47913897280967 2.0729875518673104C37.300694864048346 2.0729875518673104 37.300694864048346 3.6060165975105303 45.11882175226586 3.6060165975105303C52.936948640483365 3.6060165975105303 52.93694864048339 2.0729875518673104 60.75850453172206 2.0729875518673104C68.58006042296073 2.0729875518673104 68.58006042296074 3.6060165975105303 76.39818731117826 3.6060165975105303C84.21974320241694 3.6060165975105303 84.21974320241694 2.0729875518673104 92.03787009063446 2.0729875518673104L92.03787009063446 2.0729875518673104Z"/>
  </g>
</svg>