<?xml version="1.0" encoding="utf-8"?>
<!-- Generator: Adobe Illustrator 24.0.3, SVG Export Plug-In . SVG Version: 6.00 Build 0)  -->
<svg version="1.1" id="Calque_1" xmlns="http://www.w3.org/2000/svg" xmlns:xlink="http://www.w3.org/1999/xlink" x="0px" y="0px"
	 viewBox="0 0 138.3 137.9" style="enable-background:new 0 0 138.3 137.9;" xml:space="preserve">
<style type="text/css">
	.st0{filter:url(#Adobe_OpacityMaskFilter);}
	.st1{fill-rule:evenodd;clip-rule:evenodd;fill:#FFFFFF;}
	.st2{mask:url(#mask-4_1_);}
	.st3{filter:url(#Adobe_OpacityMaskFilter_1_);}
	.st4{mask:url(#mask-12_1_);}
	.st5{fill:none;}
	.st6{fill:#FFEF5F;}
</style>
<g>
	<defs>
		<filter id="Adobe_OpacityMaskFilter" filterUnits="userSpaceOnUse">
			<feColorMatrix  type="matrix" values="1 0 0 0 0  0 1 0 0 0  0 0 1 0 0  0 0 0 1 0"/>
		</filter>
	</defs>
	<mask maskUnits="userSpaceOnUse" id="mask-4_1_">
		<rect x="-34.1" y="-11" class="st0" width="188" height="188.9"/>
		<g>
			<path id="path-3_1_" class="st1" d="M5.2-11v149.1h148.7V-11H5.2z"/>
		</g>
	</mask>
	<g class="st2">
	</g>
</g>
<g>
	<defs>
		<filter id="Adobe_OpacityMaskFilter_1_" filterUnits="userSpaceOnUse">
			<feColorMatrix  type="matrix" values="1 0 0 0 0  0 1 0 0 0  0 0 1 0 0  0 0 0 1 0"/>
		</filter>
	</defs>
	<mask maskUnits="userSpaceOnUse" id="mask-12_1_">
		<rect x="-34.1" y="-11" class="st3" width="188" height="188.9"/>
		<g>
			<path id="path-11_1_" class="st1" d="M-34.1,46.3V149H68.4V46.3H-34.1z"/>
		</g>
	</mask>
	<g class="st4">
	</g>
</g>
<g>
	<path class="st5" d="M0.4,55.7c0,0,17.7-5.4,35.6,5.1l18.5,77.1h30.2L55.2,2.6c0,0,25.7-7.8,51.6,7.4l30.7,127.8h0.8V0H0v137.9
		h18.3L0.4,55.7z"/>
	<path class="st6" d="M55.2,2.6l29.5,135.2h52.8L106.8,10.1C80.9-5.2,55.2,2.6,55.2,2.6z"/>
	<path class="st6" d="M0.4,55.7l18,82.2h36.1L35.9,60.8C18.1,50.3,0.4,55.7,0.4,55.7z"/>
</g>
</svg>
