<?xml version="1.0" encoding="utf-8"?>
<!-- Generator: Adobe Illustrator 24.0.3, SVG Export Plug-In . SVG Version: 6.00 Build 0)  -->
<svg version="1.1" id="Calque_1" xmlns="http://www.w3.org/2000/svg" xmlns:xlink="http://www.w3.org/1999/xlink" x="0px" y="0px"
	 viewBox="0 0 25 25" style="enable-background:new 0 0 25 25;" xml:space="preserve">
<style type="text/css">
	.st0{fill-rule:evenodd;clip-rule:evenodd;fill:#FFEF5F;}
	.st1{fill-rule:evenodd;clip-rule:evenodd;fill:#E0E0E0;}
</style>
<g>
	<g>
		<path class="st0" d="M2.9,17.1C7.1,13,11.2,8.8,15.4,4.7C17,6.3,18.7,8,20.3,9.6C16.2,13.7,12,17.9,7.9,22
			C6.2,20.4,4.6,18.7,2.9,17.1L2.9,17.1z"/>
	</g>
	<g>
		<path class="st1" d="M17.4,2.7l4.9,4.9c-0.4,0.4-0.8,0.8-1.1,1.1l-4.9-4.9C16.7,3.4,17,3,17.4,2.7L17.4,2.7z"/>
	</g>
	<g>
		<path class="st1" d="M23.4,6.8c-1.7-1.7-3.4-3.4-5.1-5.1c0.4-0.4,0.8-0.9,1.3-1.3c0.7-0.6,1.9-0.4,2.6,0.3c0.7,0.7,1.4,1.4,2.1,2
			c0.7,0.8,0.8,1.9,0.1,2.7C24.2,5.9,23.8,6.3,23.4,6.8L23.4,6.8z"/>
	</g>
	<g>
		<path class="st1" d="M6.8,22.7c-0.7,0.3-1.5,0.5-2.2,0.8C3.4,24,2.2,24.4,1,24.8c-0.4,0.1-0.7,0-0.9-0.3C0,24.4,0,24.2,0,24.1
			c0.7-2,1.4-3.9,2.1-5.9c0,0,0,0,0,0C3.7,19.7,5.3,21.2,6.8,22.7L6.8,22.7z"/>
	</g>
</g>
</svg>
