<?xml version="1.0" encoding="utf-8"?>
<!-- Generator: Adobe Illustrator 24.0.3, SVG Export Plug-In . SVG Version: 6.00 Build 0)  -->
<svg version="1.1" id="Calque_1" xmlns="http://www.w3.org/2000/svg" xmlns:xlink="http://www.w3.org/1999/xlink" x="0px" y="0px"
	 viewBox="0 0 25 25" style="enable-background:new 0 0 25 25;" xml:space="preserve">
<style type="text/css">
	.st0{fill-rule:evenodd;clip-rule:evenodd;fill:#FFEF5F;}
	.st1{fill-rule:evenodd;clip-rule:evenodd;fill:#E0E0E0;}
</style>
<g>
	<g>
		<path class="st0" d="M24.2,23c-2.1-2-4.2-4.1-6.3-6.1c0.4-0.3,0.7-0.7,1.3-0.8c0.4-0.1,0.9,0,1.2,0.3c1.4,1.4,2.7,2.8,4.1,4.3
			c0.7,0.7,0.8,1.3-0.1,2.3C24.3,23,24.3,23,24.2,23L24.2,23z"/>
	</g>
	<path class="st1" d="M0.8,2.2l6.3,6c0,0,0,0,0,0c-0.6,0.7-0.4,1.4,0.1,2.1c2.3,2.7,4.9,5.2,7.8,7.4c0.7,0.5,1.3,0.6,2.1,0.1
		c2.1,2,4.1,3.9,6.2,5.9c-0.4,0.2-0.8,0.4-1.3,0.5c-1.3,0.4-2.6,0.2-4,0c-1.8-0.4-3.4-1.2-4.9-2.2c-3.2-2.2-6.1-4.8-8.6-7.7
		c-1.3-1.4-2.4-2.9-3.3-4.5C0.3,8-0.1,6.3,0,4.4C0.1,3.6,0.4,2.6,0.8,2.2L0.8,2.2z"/>
	<g>
		<path class="st0" d="M7.9,7.3c-2.1-2-4.2-4-6.3-6C1.8,1.1,2,1,2.2,0.8c0.6-0.4,1-0.4,1.6,0c0.6,0.4,1.1,0.9,1.6,1.3
			c1,0.9,2,1.8,3,2.8c0.4,0.4,0.5,0.8,0.2,1.3C8.4,6.6,8.1,7,7.9,7.3L7.9,7.3z"/>
	</g>
</g>
</svg>
