<svg width="82" height="102" viewBox="0 0 82 102" fill="none" xmlns="http://www.w3.org/2000/svg">
<path d="M81.9994 24.7907C80.9987 24.7907 79.9454 24.8957 78.9974 25.2109C78.9974 19.5909 78.9974 13.9709 78.9974 8.29841C78.9974 0.892641 67.411 0.840118 67.411 8.29841C67.411 14.2861 67.411 20.2212 67.411 26.2088C65.1464 24.7382 62.1972 24.423 59.6692 25.2109C59.6692 18.6455 59.6692 12.0801 59.6692 5.5672C59.6692 -1.83856 48.0828 -1.89109 48.0828 5.5672C48.0828 12.4477 48.0828 19.3283 48.0828 26.2088C45.8182 24.7382 42.869 24.423 40.341 25.2109C40.341 19.5909 40.341 13.9709 40.341 8.29841C40.341 0.892641 28.7546 0.840118 28.7546 8.29841C28.7546 14.2861 28.7546 20.2212 28.7546 26.2088C26.49 24.7382 23.5408 24.423 21.0128 25.2109C21.0128 20.4838 21.0128 15.8092 21.0128 11.0821C21.0128 3.67637 9.42645 3.62385 9.42645 11.0821C9.42645 16.8072 9.42645 22.4797 9.42645 28.2047C5.16055 27.5219 0.420665 29.938 0.525996 35.5054C0.789323 47.1656 0.631326 58.7732 -0.00065834 70.4333C-0.316651 76.2634 4.94989 78.627 9.42645 77.524C9.42645 81.9884 9.42645 86.4529 9.42645 90.9174C9.42645 98.3231 21.0128 98.3757 21.0128 90.9174C21.0128 87.6609 21.0128 84.4045 21.0128 81.1481C23.6461 81.7783 26.5954 81.2531 28.7546 79.5198C28.7546 84.2469 28.7546 88.974 28.7546 93.7011C28.7546 101.107 40.341 101.159 40.341 93.7011C40.341 89.4992 40.341 85.3499 40.341 81.1481C42.9743 81.7783 45.9236 81.2531 48.0828 79.5198C48.0828 85.1398 48.0828 90.8123 48.0828 96.4323C48.0828 103.838 59.6692 103.891 59.6692 96.4323C59.6692 91.3376 59.6692 86.2428 59.6692 81.0955C62.3025 81.7258 65.2518 81.2006 67.411 79.4673C67.411 84.1944 67.411 88.9215 67.411 93.6486C67.411 101.054 78.9974 101.107 78.9974 93.6486C78.9974 89.4467 78.9974 85.2974 78.9974 81.0955C79.9981 81.3056 80.9987 81.4107 81.9994 81.3056V24.7907Z" fill="#FFEF5F"/>
</svg>
