<?xml version="1.0" encoding="utf-8"?>
<!-- Generator: Adobe Illustrator 24.0.2, SVG Export Plug-In . SVG Version: 6.00 Build 0)  -->
<svg version="1.1" id="Calque_1" xmlns="http://www.w3.org/2000/svg" xmlns:xlink="http://www.w3.org/1999/xlink" x="0px" y="0px"
	 viewBox="0 0 14.3 11.1" style="enable-background:new 0 0 14.3 11.1;" xml:space="preserve">
<style type="text/css">
	.st0{fill-rule:evenodd;clip-rule:evenodd;fill:#F41F22;}
</style>
<g>
	<path class="st0" d="M11.5,6.4h-0.2c-3.4,0-6.9,0-10.3,0C0.7,6.4,0.5,6.3,0.3,6C0,5.5,0.3,4.8,0.9,4.8c0.1,0,0.1,0,0.2,0h10.5
		c0-0.1-0.1-0.1-0.1-0.1c-1-1-2-2.1-3-3.1c-0.3-0.3-0.3-0.6-0.2-1C8.4,0.1,9,0,9.4,0.3c0.1,0,0.1,0.1,0.1,0.1l4.4,4.5
		C14,5,14.1,5.1,14.1,5.2c0.2,0.4,0.2,0.7-0.1,1c-0.4,0.5-0.9,0.9-1.3,1.4c-1,1.1-2.1,2.1-3.1,3.2c-0.3,0.3-0.7,0.3-1,0.2
		C8.1,10.7,8,10.1,8.3,9.7c0.2-0.3,0.5-0.5,0.7-0.8l2.3-2.4C11.4,6.5,11.5,6.4,11.5,6.4L11.5,6.4z"/>
</g>
</svg>
