<?xml version="1.0" encoding="utf-8"?>
<!-- Generator: Adobe Illustrator 24.0.3, SVG Export Plug-In . SVG Version: 6.00 Build 0)  -->
<svg version="1.1" id="Calque_1" xmlns="http://www.w3.org/2000/svg" xmlns:xlink="http://www.w3.org/1999/xlink" x="0px" y="0px"
	 viewBox="0 0 25 25" style="enable-background:new 0 0 25 25;" xml:space="preserve">
<style type="text/css">
	.st0{fill-rule:evenodd;clip-rule:evenodd;fill:#E0E0E0;}
	.st1{fill-rule:evenodd;clip-rule:evenodd;fill:#F41F22;}
</style>
<g>
	<g>
		<path class="st0" d="M22.5,18.5c1.2-1.9,1.7-4,1.8-6c0-1.1-0.1-2.1-0.4-3C23,6.4,21.3,4,18.6,2.3c-2.9-1.8-6-2.2-9.2-1.4
			c-3.5,0.9-6.1,3-7.7,6.2c-1.3,2.6-1.6,5.4-0.9,8.2c0.6,2.4,1.9,4.4,3.8,6c2.7,2.3,5.9,3.2,9.5,2.7c1.6-0.2,3-0.7,4.4-1.6
			c0.2-0.1,0.4-0.1,0.6,0c1.4,0.7,2.9,1.3,4.3,2c0.3,0.1,0.5,0.2,0.8,0c0.4-0.2,0.5-0.6,0.3-1.1c-0.7-1.5-1.3-2.9-2-4.4
			C22.4,18.8,22.4,18.7,22.5,18.5z M11.9,6.5c0.1-0.2,0.2-0.3,0.4-0.3c0.2,0,0.3,0.1,0.4,0.3c0.5,1,1,1.9,1.4,2.9
			c0.1,0.2,0.2,0.2,0.4,0.3c1,0.1,2.1,0.3,3.1,0.4c0.2,0,0.4,0.1,0.4,0.3c0.1,0.2,0,0.4-0.2,0.5c-0.8,0.7-1.5,1.5-2.3,2.2
			c-0.2,0.1-0.2,0.3-0.2,0.5c0.2,1,0.3,1.9,0.5,2.9l0,0c0,0.1,0,0.2,0,0.2c0,0.3-0.3,0.5-0.6,0.4c-0.1,0-0.1-0.1-0.2-0.1
			c-0.9-0.5-1.8-1-2.7-1.4c-0.2-0.1-0.3-0.1-0.5,0c-0.9,0.5-1.8,1-2.7,1.4c-0.2,0.1-0.4,0.1-0.5,0c-0.2-0.1-0.2-0.3-0.2-0.5
			c0.2-1.1,0.4-2.1,0.6-3.2c0-0.2,0-0.3-0.1-0.4c-0.8-0.7-1.5-1.4-2.2-2.2c-0.1-0.1-0.2-0.2-0.2-0.3c-0.1-0.3,0.1-0.5,0.4-0.5
			C7.5,10,8.1,9.9,8.6,9.9c0.5-0.1,1.1-0.2,1.6-0.2c0.2,0,0.3-0.1,0.4-0.3C11,8.4,11.5,7.5,11.9,6.5z"/>
	</g>
	<g>
		<path class="st1" d="M12.3,2.8c0.3,0,0.5,0.2,0.6,0.5c0.7,1.5,1.5,3,2.2,4.5c0.1,0.2,0.3,0.4,0.5,0.4c1.6,0.2,3.1,0.5,4.7,0.7
			c0.3,0,0.5,0.1,0.7,0.4c0.1,0.3-0.1,0.6-0.3,0.8c-1.2,1.1-2.3,2.3-3.5,3.4C17,13.7,16.9,14,17,14.3c0.3,1.5,0.5,3,0.8,4.5
			c0,0.1,0,0.3,0,0.4c0,0.5-0.4,0.7-0.8,0.6c-0.1,0-0.2-0.1-0.3-0.1c-1.4-0.7-2.8-1.5-4.1-2.3c-0.3-0.1-0.5-0.1-0.8,0
			c-1.4,0.8-2.7,1.5-4.1,2.3c-0.3,0.1-0.5,0.2-0.8,0c-0.2-0.2-0.3-0.4-0.3-0.7c0.3-1.7,0.6-3.3,0.9-5c0-0.3,0-0.4-0.2-0.6
			c-1.1-1.1-2.3-2.2-3.4-3.4C3.7,9.9,3.6,9.8,3.6,9.6C3.5,9.2,3.7,8.9,4.2,8.8C5,8.7,5.8,8.6,6.6,8.5C7.4,8.4,8.2,8.2,9,8.1
			c0.3,0,0.4-0.2,0.5-0.4c0.7-1.5,1.4-2.9,2.1-4.4C11.8,3.1,11.9,2.8,12.3,2.8L12.3,2.8z"/>
	</g>
</g>
</svg>
