<svg xmlns="http://www.w3.org/2000/svg" xmlns:xlink="http://www.w3.org/1999/xlink" height="20" width="20">
  <defs>
    <ellipse id="ellipse-1" opacity="1" rx="10" ry="10" cx="10" cy="10"/>
    <mask id="mask-2" maskUnits="userSpaceOnUse" maskContentUnits="userSpaceOnUse" x="0" y="0">
      <rect opacity="1" x="0" y="0" width="20" height="20" fill="black"/>
      <use xlink:href="#ellipse-1" fill="white"/>
    </mask>
  </defs>
  <g opacity="1">
    <g opacity="1">
      <use xlink:href="#ellipse-1" fill="rgb(12,146,102)" fill-opacity="1"/>
      <use xlink:href="#ellipse-1" fill-opacity="0" stroke="rgb(12,146,102)" stroke-opacity="1" stroke-width="2" stroke-linecap="butt" stroke-linejoin="miter" mask="url(#mask-2)"/>
    </g>
    <g opacity="1">
      <path fill="rgb(255,255,255)" fill-opacity="1" opacity="1" fill-rule="evenodd" d="M15.305555555556687 8.352661163170989C15.300320301977763 8.590462753085788 15.236001472293832 8.725551919187621 15.089788318768159 8.813006338013878C14.93796596497935 8.904182221471038 14.780160464243199 8.986054443350938 14.629833897191224 9.07946320558664C13.922700717352216 9.5174795926441 13.295966074618118 10.054859085346711 12.69316401967339 10.623498880948919C11.675655091941001 11.583264609259192 10.756120195471343 12.631601195784993 9.87211023400153 13.71194237813657C9.645872490055151 13.988447200212775 9.41813895937194 14.2642077293628 9.209850656267587 14.55373767764717C8.958558484479214 14.903555352952194 8.58610758700716 14.80940229779031 8.399134244902715 14.574577879580236C7.974704758325627 14.04166414443471 7.506523509696098 13.547825787913682 7.011792046487738 13.078921244419714C6.405624471385129 12.504699251871148 5.754209347493244 11.986299228786152 5.056424834759458 11.527070493332534C4.734830686339813 11.315319155834068 4.694444444445253 11.162739105966985 4.893758027128591 10.833389486131935C5.095689236601391 10.499946255202891 5.356704022179195 10.211532746307793 5.605752513862315 9.913815575835432C5.783003242177329 9.702064238336964 5.943426369702943 9.476543481704152 6.117685524544284 9.262187118964052C6.191353021333436 9.171755528433073 6.275491025280435 9.08727828131154 6.3659861228589865 9.013593281619631C6.45236780691124 8.943257600095535 6.55333341164764 8.957027019229884 6.6442024559104 9.016570453324356C6.685336591173378 9.043737145129958 6.7238530996468935 9.076113887418826 6.760125928015156 9.109607069096967C7.304218353539089 9.610888354879803 7.847562885694605 10.113286080051912 8.392403204586955 10.613823072908568C8.44438179369199 10.661457820184147 8.504587209849621 10.702021784661007 8.565540519375672 10.73849213804387C8.644069323059536 10.785754738856358 8.722224180059197 10.774962491426734 8.788786689848378 10.71318617855372C8.834034238637653 10.6711336282245 8.879655734111138 10.627220345579826 8.914806722426773 10.577352719525704C9.574822620055462 9.644381536557944 10.362354336999383 8.825659317758953 11.20410832315359 8.056432578550991C11.985282946465961 7.342655662343507 12.811331171883396 6.6839564226734085 13.672156438932259 6.068054026258713C13.752181029352961 6.010743470942783 13.842676126931513 5.9638530165933865 13.9346670112469 5.929243395525974C14.059191257088461 5.882352941176578 14.162026595245905 5.916590415780899 14.236068038719266 6.027490061781854C14.609266829559735 6.58608190288062 14.95853303261084 7.158443163113733 15.175422109451993 7.798162933166219C15.244228299346426 7.99800558384579 15.27377008739893 8.211989800122799 15.305555555556687 8.352661163170989L15.305555555556687 8.352661163170989Z"/>
    </g>
  </g>
</svg>