<svg xmlns="http://www.w3.org/2000/svg" xmlns:xlink="http://www.w3.org/1999/xlink" height="16.79969685486867" width="16.73049403747882">
  <defs>
    <rect id="rect-1" opacity="1" x="0.6644709445390617" y="0.6062902614621635" width="16.00000000000034" height="16.00000000000034"/>
    <mask id="mask-2" maskUnits="userSpaceOnUse" maskContentUnits="userSpaceOnUse">
      <rect opacity="1" x="0" y="0" width="16.73049403747882" height="16.79969685486867" fill="#000"/>
      <use xlink:href="#rect-1" fill="#fff"/>
    </mask>
  </defs>
  <g opacity="1">
    <g/>
    <g mask="url(#mask-2)">
      <g opacity="1">
        <g opacity="1">
          <path fill="rgb(130,130,130)" fill-opacity="1" opacity="1" fill-rule="evenodd" d="M5.653152737751952 13.480252663805913C7.672004971638671 13.953168313219976 9.523075375691405 13.534818093493413 11.21423367036914 12.287686745837163C11.253605160847655 12.337399880602788 11.28631618990039 12.389539162829351 11.32931927217578 12.433194558337163C12.60677746309375 13.711255471423101 13.885444913044921 14.989316384509038 15.164112362996093 16.266766946032476C15.210148129597655 16.313443581774663 15.257393155232421 16.358914773180913 15.306453976765624 16.402570168688726C15.752262387410155 16.79969541282935 16.47306469453906 16.588712136462163 16.63236645235156 16.013944070055913C16.7304957248125 15.660474221423101 16.591785702839843 15.387647072985601 16.34647015108203 15.142697732165288C15.056900296345702 13.854337136462163 13.77096203340625 12.562940041735601 12.48260525240039 11.273358742907476C12.440204892292968 11.230924050524663 12.385689053669921 11.201215188219976 12.329963956013671 11.160581032946538C13.070755276814452 10.198407571032476 13.509899411335937 9.145886819079351 13.661327633992187 7.9811987087277885C13.812755856648437 6.8159155056027885 13.661934170857421 5.6863989040402885 13.206436429158202 4.599316994860601C12.750934872761718 3.5116247341184135 12.042248044148437 2.622205178454351 11.109447751179687 1.907391946032476C8.619953427449218 -0.000002463147211528849 4.959606442585937 0.21947995872778847 2.7105830050859367 2.371808449938726C0.31739643587206956 4.6617712184934135 2.7193163987249136e-7 8.315274636462163 1.883777890339843 10.935651223376226C2.825062070027343 12.245236794665288 4.085556302205077 13.112836281969976 5.653152737751952 13.480252663805913ZM7.185615811482421 2.234784524157476C9.88589886201953 2.2335790798215385 12.084648404255859 4.4283422634152885 12.085861477986327 7.1275610134152885C12.08707073701953 9.826764504626226 9.905887875691405 12.030011574938726 7.1940958835039055 12.027585427477788C4.471401486531249 12.025769631579351 2.31323269380664 9.855252663805913 2.2974818087968742 7.1354345485715385C2.2817347384843742 4.448956887438726 4.4859354831132805 2.236615578844976 7.185615811482421 2.234784524157476Z"/>
        </g>
      </g>
    </g>
  </g>
</svg>
