<?xml version="1.0" encoding="utf-8"?>
<!-- Generator: Adobe Illustrator 24.0.3, SVG Export Plug-In . SVG Version: 6.00 Build 0)  -->
<svg version="1.1" id="Calque_1" xmlns="http://www.w3.org/2000/svg" xmlns:xlink="http://www.w3.org/1999/xlink" x="0px" y="0px"
	 viewBox="0 0 210.2 5.1" style="enable-background:new 0 0 210.2 5.1;" xml:space="preserve">
<style type="text/css">
	.st0{fill-rule:evenodd;clip-rule:evenodd;fill:#222222;}
</style>
<g>
	<path class="st0" d="M197.3,2.2c-7.8,0-7.8-2-15.6-2c-7.8,0-7.8,2-15.6,2s-7.8-2-15.6-2c-7.8,0-7.8,2-15.6,2S127,0,119.1,0
		c-6.3,0-7.5,1-11.8,1.7c-1.4,0.2-2.8,0.1-3.3,0C99.5,1.1,98.4,0,92,0c-7.8,0-7.8,2-15.6,2c-7.8,0.1-7.8-2-15.7-2
		c-7.9,0-7.8,2-15.6,2s-7.8-2-15.6-2c-7.8,0-7.8,2-15.6,2C6.7,2.2,5.9,0,0,0v3c6.1,0.7,6.6,1.9,13.8,1.9c7.8,0,7.8-2,15.6-2
		s7.8,2,15.6,2c7.8,0,7.8-2,15.6-2s7.8,2,15.6,2c7.8,0,7.8-2,15.6-2c6.9,0,7.8,2,13.3,2.2c5.9,0,6.7-2.2,13.8-2.2
		c7.8,0,7.8,2,15.6,2s7.8-2,15.6-2s7.8,2,15.6,2c7.8,0,7.8-2,15.6-2s7.8,2,15.6,2c7,0,7.7-1.2,13.3-1.9V0
		C205.2,0.1,204.2,2.2,197.3,2.2z"/>
</g>
</svg>
