<?xml version="1.0" encoding="utf-8"?>
<!-- Generator: Adobe Illustrator 24.0.2, SVG Export Plug-In . SVG Version: 6.00 Build 0)  -->
<svg version="1.1" id="Calque_1" xmlns="http://www.w3.org/2000/svg" xmlns:xlink="http://www.w3.org/1999/xlink" x="0px" y="0px"
	 viewBox="0 0 121.2 224.5" style="enable-background:new 0 0 121.2 224.5;" xml:space="preserve">
<style type="text/css">
	.st0{fill:#FFEF5F;}
</style>
<g>
	<path class="st0" d="M34.8,39.7C-1.7,77.8-7.5,135.5,12.5,183.1c4,9.4,9,18,14.8,26.3c7.3-4.2,14.6-8.3,21.8-12.8
		c-0.3-0.5-0.6-0.8-0.6-0.8c-0.8-1.1-1.5-2.2-2.3-3.2c-1.5-2.2-2.9-4.4-4.2-6.7c-2.6-4.4-4.9-9-6.9-13.6c-0.1-0.3-1-2.5-1-2.4
		c-0.4-1-0.8-2.1-1.1-3.1c-0.8-2.3-1.5-4.6-2.2-6.9c-1.5-5.1-2.6-10.2-3.5-15.5c-0.1-0.5-0.1-0.8-0.2-1c0-0.2,0-0.5-0.1-1
		c-0.1-1.3-0.3-2.6-0.4-3.9c-0.2-2.4-0.4-4.8-0.4-7.2c-0.2-5.5,0-11,0.5-16.4c0-0.3,0.1-0.6,0.1-0.8c0-0.1,0-0.3,0.1-0.5
		c0.2-1.1,0.3-2.2,0.5-3.2c0.4-2.6,0.9-5.2,1.5-7.7c1.2-5.1,2.7-10.1,4.6-15c0.1-0.4,0.2-0.6,0.3-0.9c0.1-0.2,0.2-0.5,0.4-0.8
		c0.6-1.2,1.1-2.4,1.7-3.6c1-2,2-3.9,3-5.8c1.3-2.3,2.6-4.5,4-6.6c0.7-1.1,1.5-2.1,2.2-3.2c0.4-0.5,0.6-0.9,0.7-1
		c0.2-0.3,0.5-0.6,0.8-0.9c6.1-7.5,14.3-15.1,20.6-19.5c3.9-2.7,8-5.2,12.2-7.4c2.3-1.2,4.6-2.3,7-3.4c0.4-0.2,0.7-0.3,0.9-0.4
		s0.5-0.2,0.9-0.3c1.2-0.5,2.4-0.9,3.6-1.3c10.2-3.6,18.7-5.3,28.2-5.8c0.4,0,0.7,0,1.1,0V1.1C89.2,2,57.2,16.2,34.8,39.7z"/>
	<path class="st0" d="M99.9,126.8c-4.2,14.5,4.9,28.2,18.7,32.8c0.8,0.3,1.7,0.5,2.5,0.7v-53.1C111.2,108.7,102.9,116.5,99.9,126.8z
		"/>
	<path class="st0" d="M30.2,132.1c0.5,24.2,10.6,47.6,28.7,63.8c17.4,15.6,39.4,24.3,62.4,27.4v-25.4l0,0c-2.2-0.4-4.4-0.8-6.6-1.3
		c-4.8-1.1-9.4-2.6-14-4.2c-0.3-0.1-0.5-0.2-0.7-0.2c-0.2-0.1-0.4-0.2-0.6-0.3c-1.1-0.5-2.2-1-3.3-1.5c-2.1-1-4.2-2.1-6.3-3.3
		c-1.7-1-3.4-2-5-3c-1-0.6-1.9-1.3-2.9-2c-0.4-0.3-0.8-0.6-1.2-0.9c-0.1-0.1-0.4-0.3-0.7-0.5c-3.2-2.8-6.3-5.6-9.2-8.7
		c-0.8-0.9-1.5-1.8-2.2-2.6c-0.2-0.2-0.3-0.4-0.4-0.5s-0.2-0.3-0.4-0.5c-1.3-1.9-2.6-3.8-3.8-5.8c-3.9-6.7-7.3-16.2-7.9-23.4
		c-1.9-21.7,5-42,18.8-57.9c7.4-8.5,13.3-13.2,23.3-18.3c4.3-2.2,6.2-3.1,11.5-4.6c2.5-0.7,5-1.4,7.5-1.9c-0.3,0.1,1.8-0.3,2.4-0.4
		c0.4,0,1.1-0.1,1.7-0.2V30.3C71.2,33.2,29.2,82.6,30.2,132.1z"/>
	<path class="st0" d="M93.8,80.7c-23.1,15.7-37.6,48.7-26.4,75.5c8.9,21.5,31.2,35.2,54,36.8v-25.3c-0.1,0-0.1,0-0.2,0
		c-0.2,0-0.3-0.1-0.6-0.1c-1.1-0.2-2.2-0.4-3.3-0.6c-2.2-0.5-4.3-1.2-6.5-1.9c-0.2-0.1-0.4-0.1-0.5-0.2c-0.1-0.1-0.3-0.2-0.5-0.3
		c-1-0.5-2-1-3-1.5c-1.6-0.9-3.2-1.9-4.8-2.9c-0.4-0.3-3.2-2.6-0.9-0.6c-0.8-0.7-1.7-1.4-2.5-2.2s-1.6-1.5-2.3-2.3
		c-0.3-0.3-2-2.5-2-2.4c-0.9-1.2-1.7-2.5-2.4-3.8c-0.4-0.6-0.7-1.3-1-1.9c0.1,0.1-0.7-1.8-0.8-2c-0.4-1.4-0.8-2.8-1.1-4.3
		c0.1,0.2-0.2-2-0.2-2.2c0-1.4,0-3.7,0-4.6c1.1-10.4,6-19.8,12.3-26.5c3.8-4,6.4-6.2,11.6-8.3c-0.5,0.2,1.2-0.4,1.2-0.4
		c1.2-0.3,2.4-0.7,3.6-0.9c0.4-0.1,0.7-0.2,0.8-0.2c0.2,0,0.5,0,0.9,0c0.7,0,1.3,0,2,0V72.4C111.7,72.4,101.9,75.1,93.8,80.7z"/>
</g>
</svg>
