<?xml version="1.0" encoding="utf-8"?>
<!-- Generator: Adobe Illustrator 24.0.3, SVG Export Plug-In . SVG Version: 6.00 Build 0)  -->
<svg version="1.1" id="Calque_1" xmlns="http://www.w3.org/2000/svg" xmlns:xlink="http://www.w3.org/1999/xlink" x="0px" y="0px"
	 viewBox="0 0 52.5 3.7" style="enable-background:new 0 0 52.5 3.7;" xml:space="preserve">
<style type="text/css">
	.st0{opacity:0.3;}
	.st1{clip-path:url(#SVGID_2_);}
	.st2{fill-rule:evenodd;clip-rule:evenodd;fill:#222222;}
</style>
<g class="st0">
	<g>
		<g>
			<defs>
				<rect id="SVGID_1_" y="-4.6" width="52.5" height="8.4"/>
			</defs>
			<clipPath id="SVGID_2_">
				<use xlink:href="#SVGID_1_"  style="overflow:visible;"/>
			</clipPath>
			<g class="st1">
				<path class="st2" d="M141.4,1.7c-5.6,0-5.6-1.5-11.2-1.5s-5.6,1.5-11.2,1.5s-5.6-1.5-11.2-1.5s-5.6,1.5-11.2,1.5
					s-5.7-1.6-11.3-1.6c-4.5,0-5.4,0.7-8.5,1.2c-1,0.1-2,0.1-2.4,0c-3.2-0.4-4-1.2-8.6-1.2c-5.6,0-5.6,1.5-11.2,1.5
					C49,1.7,49,0.1,43.3,0.1s-5.6,1.5-11.2,1.5s-5.6-1.5-11.2-1.5s-5.4,1.4-11,1.4C4.8,1.7,4.2,0.1,0,0.1v2.2
					c4.4,0.5,4.7,1.4,9.9,1.4c5.6,0,5.6-1.5,11.2-1.5s5.6,1.5,11.2,1.5s5.6-1.5,11.2-1.5S49,3.6,54.6,3.6s5.6-1.5,11.2-1.5
					c4.9,0,5.6,1.5,9.5,1.6c4.2,0,4.8-1.6,9.9-1.6c5.6,0,5.6,1.5,11.2,1.5s5.6-1.5,11.2-1.5s5.6,1.5,11.2,1.5s5.6-1.5,11.2-1.5
					c5.6,0,5.6,1.5,11.2,1.5c5,0,5.5-0.9,9.5-1.4V0.1C147.1,0.2,146.4,1.7,141.4,1.7z"/>
			</g>
		</g>
	</g>
</g>
</svg>
