<svg id="Calque_1" data-name="Calque 1" xmlns="http://www.w3.org/2000/svg" viewBox="0 0 125.43 78.39"><defs><style>.cls-1{fill:#3957a7;}.cls-2{fill:#fff;}.cls-3{fill:#f9a533;}</style></defs><title>visa</title><rect class="cls-1" width="125.43" height="78.39" rx="4.18"/><polygon class="cls-2" points="57.72 50.97 51.59 50.97 55.42 27.44 61.55 27.44 57.72 50.97"/><path class="cls-2" d="M46.44,51,40.6,67.14l-.69-3.48h0L37.85,53.08A2.63,2.63,0,0,0,34.94,51H25.28l-.11.39A23.18,23.18,0,0,1,31.58,54L36.9,74.49h6.39L53,51Z" transform="translate(0 -23.52)"/><path class="cls-2" d="M94.63,74.49h5.63L95.36,51H90.43a2.81,2.81,0,0,0-2.83,1.75L78.46,74.49h6.39L86.13,71h7.79Zm-6.74-8.32,3.22-8.81,1.81,8.81Z" transform="translate(0 -23.52)"/><path class="cls-2" d="M78.94,56.62l.87-5.06a17.71,17.71,0,0,0-5.51-1c-3,0-10.26,1.32-10.26,7.79,0,6.08,8.48,6.15,8.48,9.34s-7.6,2.63-10.11.61l-.91,5.29a17.11,17.11,0,0,0,6.91,1.33c4.18,0,10.49-2.17,10.49-8.06,0-6.12-8.55-6.69-8.55-9.35S76.32,55.17,78.94,56.62Z" transform="translate(0 -23.52)"/><path class="cls-3" d="M39.91,63.66,37.85,53.08A2.63,2.63,0,0,0,34.94,51H25.28l-.11.39a23.84,23.84,0,0,1,9.09,4.57A18.39,18.39,0,0,1,39.91,63.66Z" transform="translate(0 -23.52)"/></svg>