<?xml version="1.0" encoding="utf-8"?>
<!-- Generator: Adobe Illustrator 24.0.3, SVG Export Plug-In . SVG Version: 6.00 Build 0)  -->
<svg version="1.1" id="Calque_1" xmlns="http://www.w3.org/2000/svg" xmlns:xlink="http://www.w3.org/1999/xlink" x="0px" y="0px"
	 viewBox="0 0 25 25" style="enable-background:new 0 0 25 25;" xml:space="preserve">
<style type="text/css">
	.st0{fill-rule:evenodd;clip-rule:evenodd;fill:#E0E0E0;}
	.st1{fill-rule:evenodd;clip-rule:evenodd;fill:#FFEF5F;}
</style>
<g>
	<g>
		<path class="st0" d="M12.2,14.8c0.4-1.3,0.8-2.6,1.3-3.9c0.4-1.2,0.8-2.3,1.1-3.5c0.2-0.7,0.8-1,1.4-0.8c0.6,0.2,0.9,0.8,0.8,1.3
			c-0.2,0.9-0.5,1.8-0.8,2.6c-0.3,0.9-0.6,1.8-0.8,2.7c0-0.1,0.1-0.1,0.1-0.2c0.8-2,1.6-4,2.4-6c0.3-0.8,1.3-1.1,1.9-0.5
			C19.8,7,20,7.6,19.8,8.1c-0.8,2.1-1.7,4.2-2.5,6.3c0,0,0,0.1,0,0.2c0-0.1,0.1-0.1,0.1-0.2c0.8-1.6,1.6-3.2,2.4-4.8
			c0.3-0.6,0.9-0.9,1.4-0.7c0.5,0.2,0.9,0.8,0.7,1.4c0,0.1-0.1,0.2-0.1,0.4c-0.8,1.7-1.7,3.4-2.5,5.1c0,0,0,0.1,0,0.1
			c0-0.1,0.1-0.1,0.1-0.2c0.6-1.1,1.2-2.1,1.8-3.2c0.4-0.7,1.3-0.7,1.7-0.2c0.3,0.3,0.3,0.8,0.1,1.3c-0.4,0.8-0.9,1.7-1.3,2.5
			c-0.9,1.8-1.9,3.5-2.8,5.3c-0.4,0.8-1,1.5-1.6,2.1c-0.4,0.4-0.8,0.9-1.2,1.4c-0.1,0.1-0.2,0.1-0.3,0c-1.6-0.7-3.3-1.4-4.9-2.1
			c-0.2-0.1-0.5-0.2-0.7-0.3c-0.1,0-0.1-0.1-0.1-0.2c0-1-0.2-2-0.3-3c-0.1-0.8-0.1-1.6,0-2.4c0.1-0.7,0.2-1.4,0.3-2.1
			c0.1-0.5,0.1-0.9,0.2-1.4c0-0.3,0.1-0.5,0.3-0.7c0.2-0.4,0.6-0.5,1-0.1c0.5,0.5,0.7,1.1,0.8,1.8C12.2,14.4,12.2,14.6,12.2,14.8
			L12.2,14.8z"/>
	</g>
	<g>
		<path class="st1" d="M2,16.3c0-2.7,0.5-5.4,1.6-7.9C3.7,8.1,4,8,4.2,8.1c0.3,0.1,0.4,0.4,0.3,0.8c-0.6,1.4-1,2.8-1.2,4.3
			c-0.2,1.5-0.3,3-0.1,4.6c0,0.1,0,0.3,0,0.4c0,0.3-0.2,0.6-0.5,0.6c-0.3,0-0.5-0.2-0.5-0.5C2.1,17.6,2,17,2,16.3L2,16.3z"/>
	</g>
	<g>
		<path class="st1" d="M7.9,8.7c1.5-3.2,3.5-6,6.2-8.3c0.3-0.3,0.8-0.3,1,0c0.3,0.3,0.2,0.8-0.1,1.1c-1.5,1.2-2.7,2.7-3.8,4.3
			c-1.1,1.6-2,3.4-2.7,5.3c-0.1,0.2-0.1,0.4-0.2,0.5c-0.2,0.4-0.5,0.6-0.9,0.5C7,11.9,6.8,11.5,7,11.1C7.3,10.3,7.6,9.5,7.9,8.7
			L7.9,8.7z"/>
	</g>
</g>
</svg>
